<svg xmlns="http://www.w3.org/2000/svg" version="1.1" viewBox="-5.0 -10.0 110.0 135.0">
 <path d="m79.688 49.836v6.6992c-19.789 8.1484-39.586 8.0859-59.375 0.11719v-6.8203c3.2266-0.23047 6.1133-1.2148 8.293-3.0898 2.5508-2.1953 4.207-5.6328 4.207-10.703 0-5.7227-2.1445-12.324-5.4336-16.695-2.3984-3.1875-5.4258-5.1797-8.6289-5.1797s-6.2266 1.9922-8.6289 5.1797c-3.2891 4.3672-5.4336 10.973-5.4336 16.695 0 5.0703 1.6562 8.5078 4.207 10.703 2.1797 1.875 5.0703 2.8594 8.293 3.0898v7.0234c-1.3242 0.82812-3.5391 2.793-4.2422 6.9375-0.14453 0.85156 0.42969 1.6602 1.2773 1.8047 0.85156 0.14453 1.6602-0.42969 1.8047-1.2773 0.22656-1.3398 0.67188-2.3516 1.1602-3.1016v20.566c-3.6953 0.26172-7.3867 0.57031-11.086 0.92188-0.85937 0.085938-1.4922 0.84766-1.4102 1.707 0.082032 0.85547 0.84766 1.4883 1.7031 1.4062 29.27-2.7891 58.336-2.7695 87.203 0 0.85938 0.082032 1.6211-0.54687 1.707-1.4062 0.082031-0.85937-0.55078-1.6211-1.4062-1.7031-3.6953-0.35547-7.3867-0.66406-11.086-0.92969v-20.559c0.48828 0.75 0.92969 1.7578 1.1602 3.1016 0.14453 0.85156 0.95312 1.4219 1.8047 1.2773 0.85156-0.14453 1.4219-0.94922 1.2773-1.8047-0.70313-4.1445-2.9141-6.1094-4.2422-6.9375v-7.0234c3.2266-0.23047 6.1133-1.2148 8.293-3.0898 2.5508-2.1953 4.207-5.6328 4.207-10.703 0-5.7227-2.1445-12.324-5.4336-16.695-2.3984-3.1875-5.4258-5.1797-8.6289-5.1797s-6.2266 1.9922-8.6289 5.1797c-3.2891 4.3672-5.4336 10.973-5.4336 16.695 0 5.0703 1.6562 8.5078 4.207 10.703 2.1797 1.875 5.0703 2.8594 8.293 3.0898zm-59.375 12.012v19.727c19.883-1.2891 39.676-1.2812 59.375-0.007813v-19.668c-9.8867 10.906-19.82 16.172-29.695 16.117-9.8672-0.054687-19.797-5.4297-29.68-16.168z" fill-rule="evenodd"/></svg>