<svg xmlns="http://www.w3.org/2000/svg" version="1.1" viewBox="-5.0 -10.0 110.0 135.0">
 <path d="m50 10c-10.785 0-19.562 8.7695-19.562 19.543 0 4.2891 1.3672 8.3633 3.9492 11.777 2.3555 3.1094 5.6406 5.4766 9.3125 6.7266l4.6211 28.168c0.12891 0.83203 0.83594 1.4375 1.6797 1.4375s1.5508-0.60547 1.6758-1.4258l4.6211-28.176c3.6719-1.25 6.9609-3.6211 9.3164-6.7266 2.5859-3.4141 3.9531-7.4844 3.9531-11.777 0-10.777-8.7773-19.543-19.566-19.543zm-2.4102 11.582c-2.2188 0.66797-4.0742 2.2461-5.0898 4.3398-0.41797 0.86328-1.2812 1.3633-2.1797 1.3633-0.35547 0-0.71484-0.078125-1.0547-0.24219-1.2031-0.58203-1.7031-2.0312-1.1211-3.2344 1.6016-3.3047 4.5352-5.8047 8.0508-6.8594 1.2812-0.38672 2.6289 0.34375 3.0117 1.6211 0.38281 1.2812-0.34375 2.6289-1.6211 3.0117zm39 54.922c0 8.8594-18.406 13.496-36.59 13.496s-36.59-4.6367-36.59-13.496c0-7.6367 13.504-11.934 27.902-13.137l1.0742 6.5586c-5.2422 0.9375-9.6562 2.9805-9.6562 6.5859 0 1.7109 1.0469 4.0898 6.0234 5.6953 3.0391 0.98047 7.0312 1.5234 11.246 1.5234s8.207-0.53906 11.246-1.5234c4.9805-1.6094 6.0234-3.9844 6.0234-5.6953 0-3.6016-4.4141-5.6445-9.6562-6.5859l1.0742-6.5586c14.398 1.207 27.902 5.5039 27.902 13.137z"/></svg>