<?xml version="1.0" encoding="UTF-8"?>
<svg id="Calque_1" xmlns="http://www.w3.org/2000/svg" version="1.1" viewBox="0 0 113.39 113.39">
  <!-- Generator: Adobe Illustrator 29.1.0, SVG Export Plug-In . SVG Version: 2.1.0 Build 142)  -->
  <defs>
    <style>
      .st0 {
        fill: none;
      }
    </style>
  </defs>
  <path d="M100.4,15.1c-5.59-1.34-11.36-1.8-17.11-1.63-9.81.28-19.5,2.13-29.24,3.09-11.58,1.15-22.21,1.12-33.69-.83-5.27-.9-14.37-4.85-15.67,3.1v72.37c.36,4.87,7.55,5.82,11.43,6.61,11.45,2.34,22.91,2.17,34.46.65,14.21-1.87,31.42-6.21,45.46-2.41,2.32.63,5.27,2.21,7.6,1.94,2.09-.24,4.18-2.13,4.34-4.29l.16-72.68c-.32-4.29-4.27-5.1-7.73-5.93ZM30.15,65.57c-.53-1.18-.47-4.97.04-6.16.23-.53,1.04-1.26,1.61-1.38,1.14-.23,2.83.61,3.02,1.78.11.69-.07,4.58-.22,5.26-.49,2.3-3.5,2.61-4.44.5ZM38.86,79.15c-1.31-.27-5.54-4.6-5.85-5.92-.32-1.33.4-2.67,1.77-2.96,2.14-.44,2.51,1.05,3.65,2.24.88.92,3.44,2.73,3.6,3.77.29,1.86-1.37,3.24-3.17,2.86ZM43.19,57.19c-1.07.71-2.32.74-3.35-.05-1.98-1.52-4.97-4.86-6.81-6.77-.17-.17-.37-.25-.49-.53l-7.14,7.14c-2.09,1.7-4.09.11-5.5-1.57-1.19-1.41-1.58-2.37-.37-3.99l7.28-7.31-7.3-7.29c-.73-.95-1-2.07-.3-3.14.25-.38,2.57-2.66,2.94-2.86.9-.49,2.31-.43,3.15.21l7.25,7.19,6.9-6.91c2.23-2,4.43,0,5.89,1.8.84,1.04,1.16,2.15.38,3.37l-7.6,7.62,7.6,7.62c.48.63.53,1.6.33,2.35-.15.56-2.31,2.74-2.86,3.11ZM56.24,78.71c-1.79,1.46-9.44,4.56-10.24.99-.74-3.29,2.91-3,4.92-3.65,1.07-.35,2.64-1.54,3.32-1.7,2.82-.65,4.37,2.43,2,4.36ZM67.43,66.52c-.26.71-3.36,4.43-4.04,5.06-2.1,1.94-5.06.13-4.33-2.29.15-.51,3.05-3.95,3.61-4.55.37-.39,1.31-1.43,1.76-1.53,2-.46,3.72,1.32,2.99,3.31ZM77.75,58.15c-1.43,1.16-3.76,2.13-5.25,3.38-.78.21-1.85.1-2.46-.45-.92-.83-.98-2.11-.34-3.14.59-.95,4.99-3.93,6.05-4.15,2.5-.52,4.16,2.61,2.01,4.36ZM92.5,54.86c-1.04.94-2.06.51-3.28.65-1.7.19-3.19,1.38-4.82.54-1.73-.89-1.67-3.18-.14-4.24.99-.68,4.2-1.24,5.45-1.3,1.24-.05,2.63.09,3.31,1.31.56,1.01.31,2.28-.53,3.04ZM94.04,43.05l-31.68.04c-1.02-.14-.99-1.15-.38-1.81,3.41-3.59,6.41-7.81,9.81-11.38,5.19-5.46,8.05,1.11,11.46,4.55,1.36-1.53,3.4-1.41,4.89-.1,2.2,1.95,4.16,5.16,6.31,7.26.37.57.19,1.15-.4,1.44Z"/>
  <rect class="st0" x="-.14" y="-.1" width="113.39" height="113.39"/>
</svg>