<?xml version="1.0" encoding="UTF-8"?>
<svg id="Calque_2" xmlns="http://www.w3.org/2000/svg" version="1.1" viewBox="0 0 113.39 113.39">
  <!-- Generator: Adobe Illustrator 29.1.0, SVG Export Plug-In . SVG Version: 2.1.0 Build 142)  -->
  <defs>
    <style>
      .st0 {
        fill: none;
      }

      .st1 {
        fill: #1d1d1b;
      }
    </style>
  </defs>
  <path class="st1" d="M63.79,15.18c.06,2.15-.06,4.33,0,6.48.03,1.02.85,1.84,1.87,1.85.86,0,1.72.02,2.56.05,1.06.04,2.13-.06,3.2.01l7.02,22.13.18,1.06-14.02,26.27c-.68.65-2.53,1.11-3.46,1.18-2.94.22-6.29-.06-9.29-.01-3.43.05-6.94.22-10.36.28-1.52.03-3.06-.03-4.58,0-.08-.45.57-.3.75-.68.12-.25.06-.44,0-.69-.07-.33-1.18-3.34-1.3-3.48-.38-.43-1.39-.03-1.92-.26l-.76-1.56.74-.92-.14-.5c-.65-.57-2.25-3.02-3.02-3.05-.75-.03-1.45.54-2.16-.24-.16-.21.18-1.1-.05-1.58-.2-.42-3.65-1.93-4.24-1.92-.92.01-.95.96-1.39,1.09-.17.05-1.01-.07-1.17-.14-.55-.25-.11-1.45-.81-1.78-.67-.32-4.49-.44-4.89.09-.49.65.51,1.68-1.58,1.85-1.13.09-1.14-1.33-2.03-1.34-.52,0-3.63,1.41-3.88,1.85-.46.8.71,1.49-.62,2.38-.63.42-1.11-.89-1.98-.49-.16.08-1.23,1.2-1.44,1.43-.28.3-1.32,1.55-1.44,1.83-.45,1.01.42,1.31.67,2.17,0,.05-.56.89-.61.92-.63.38-1.51-.23-2.15.54-.43.52-1.33,3.51-1.31,4.17.02.79,1.47,1.06,1.52,1.49.19,1.54-.27,1.1-1.1,1.65-.79.52-.62,1.97-.55,2.86.05.62.26,2.58.91,2.77.96.29,1.67-.76,2.06,1.22.21,1.05-1.32,1.07-1.31,1.71,0,.57,2.04,3.84,2.56,4,.7.21,1.23-.59,1.68-.47l1.09,1.12c.16.39-.82,1.12-.73,1.79.06.42,1.04,1.07,1.41,1.33.4.29,2.02,1.37,2.38,1.45,1.05.22,2.14-1.93,3.42-.16l.05,1.52c.19.3,4.12.92,4.68.83,1.04-.17,1.02-1.42,1.33-1.6.17-.1,1.7-.08,1.82.1.13.37.09,1.25.47,1.44.64.32,4.02-.44,4.58-.88.7-.56,0-1.88.56-2.31,1.55-1.21,1.86.83,3.09.5.42-.11,2.88-2.22,3.11-2.62.51-.86-1.26-1.79-.07-2.93.72-.69,1.58.44,2.39-.21.61-.48,1.92-3.61,1.91-4.38-.01-.99-1.12-.65-1.24-1.38-.05-.3.26-1.74.5-1.82,5.95-.12,11.92.09,17.87-.01,6.32-.11,11.09.58,14.78-5.43,2.21-3.6,4.27-7.99,6.24-11.78l5.53-10.65c-.01.23.03.44.1.65,1.49,4.93,3.4,9.98,5.3,14.77.8,2.01,2.77,5.64,3.14,7.51.07.33-.2.74-.22,1.16-.18,3.96,4.8,6.32,7.45,3.07,2.24-2.74-.03-6.7-3.4-6.71l-2.68-6.87c5.73-1.63,12.22,2.32,13.72,7.99,1.5,5.67-1.19,11.38-6.66,13.54-9.5,3.74-18.24-6.07-14.45-15.27.25-.61,1.68-2.83,1.66-3.11-.03-.37-1.51-3.18-1.8-3.81-.24-.52-1.26-3.58-1.76-3.45-.86.7-2.82,2.21-3.25,3.18-.66,1.51,1.62,1.67.32,3.18-.69.79-2.03.1-2.53.61-.51.52-1.28,3.08-1.34,3.85-.12,1.47,1.37,1.2,1.42,1.88.12,1.57-1.46,1.05-1.78,2.12-.19.62.04,3.47.28,4.1.4,1.06,1.94.49,2.13.76.09.54.55,1.03.37,1.6-.15.48-1.25.58-1.21,1.24.03.43,1.81,3.47,2.19,3.83.95.92,1.51-.69,2.33,0,.12.1.66.84.68.97.06.62-.88,1.04-.48,1.97.21.49,3.11,2.6,3.68,2.6,1.06,0,1.78-1.84,3.13-.15l-.03,1.75c.22.21,3.53.85,4,.86,1.23.03,1.01-1.15,1.62-1.52.4-.24,1.13-.15,1.58-.06.54.89-.19,1.77,1.28,1.72.61-.02,3.74-.73,4.11-1.09.76-.73-.32-2.29,1.48-2.44.56.37,1.01,1.32,1.78,1.21.33-.05,3.01-1.88,3.28-2.2,1.03-1.21-1.23-2.48.71-3.51.61.06,1.46.82,2.04.39.15-.11,1.1-1.6,1.26-1.88.28-.49,1.01-1.8.99-2.29-.03-.79-.58-.75-.89-1.17-.5-.67.07-1.35.21-2.04,1.3.14,1.83.81,2.14-.79.14-.76.33-3.25.14-3.9-.21-.73-1.82-.72-1.89-1.01-.39-2.17,1.74-1.46,1.31-3.74-.09-.47-1.22-3.43-1.53-3.53-1.07.15-1.99.71-2.44-.69-.31-.98,1.12-1.3.84-2.19-.09-.3-2.66-2.86-2.95-2.95-.66-.2-1.27.52-1.84.49-.33-.02-1.41-.67-1.45-1.03-.05-.49.57-1.05.15-1.75-.27-.44-3.59-1.87-4.12-1.8-.82.11-.83,1.04-1.21,1.23-.44.21-1.49,0-1.93-.26-.38-.46.28-1.51-.66-1.8-.52-.16-3.69-.13-4.18.07-.93.36-.54,1.35-.95,1.64-.2.14-1.51.37-1.68.26l-12.44-37.12c4.31-.55,4.25-6.96.17-7.89-2.64-.6-7.5-.28-10.43-.34M10.81,85.45c-6.8-8.03-.34-20.22,10.29-18.75,4.47.62,7.44,3.75,8.82,7.9l-5.67-.14-.2-.07c-2.39-3.65-8.07-3.16-9.93.72-2.85,5.95,4.62,11.37,9.72,7.13.57-.47.89-1.12,1.5-1.5h4.71c-2,8.7-13.4,11.61-19.25,4.71ZM18.96,78.94c-1.15-.26-.9-1.99,0-2.26,2.11-.63,2.44,2.82,0,2.26Z"/>
  <rect class="st0" x="-.14" y="-.1" width="113.39" height="113.39"/>
</svg>