<svg xmlns="http://www.w3.org/2000/svg" xmlns:xlink="http://www.w3.org/1999/xlink" style="isolation:isolate;" viewBox="0 0 512 640" x="0px" y="0px"><defs><clipPath id="a"><rect width="512" height="512"/></clipPath></defs><g clip-path="url(#a)"><path d=" M 64.28 302.22 L 69.19 310.94 L 51.76 320.74 L 46.86 312.03 C 45.03 308.79 43.63 305.32 42.68 301.72 C 41.77 298.22 41.3 294.62 41.31 291 C 41.33 285.81 42.25 280.66 44.04 275.78 C 45.85 270.84 48.42 266.22 51.65 262.07 C 55.01 257.73 58.96 253.89 63.37 250.63 C 68.07 247.17 73.19 244.32 78.61 242.15 C 82.83 240.44 87 238.62 91.13 236.68 C 95.56 234.6 99.95 232.42 104.3 230.15 C 113.68 225.23 122.89 219.98 131.92 214.42 C 141.51 208.52 150.95 202.36 160.21 195.95 C 169.63 189.44 178.89 182.71 187.98 175.76 C 196.85 168.99 205.55 162.02 214.08 154.85 C 222.02 148.18 229.78 141.31 237.36 134.23 C 244 128.05 250.42 121.63 256.62 114.99 C 259.27 112.14 261.85 109.23 264.36 106.25 C 266.53 103.68 268.62 101.04 270.62 98.34 C 275.1 92.22 280.04 86.47 285.42 81.13 C 287.91 78.67 290.51 76.32 293.21 74.09 C 295.76 71.98 298.41 70 301.15 68.15 C 303.75 66.4 306.44 64.79 309.21 63.35 C 311.84 61.97 314.56 60.77 317.34 59.75 C 320.01 58.78 322.75 58.01 325.54 57.47 C 328.25 56.94 331 56.66 333.77 56.65 C 336.34 56.64 338.92 56.91 341.44 57.44 C 343.98 57.97 346.45 58.81 348.79 59.92 C 351.17 61.06 353.4 62.49 355.43 64.17 C 357.5 65.89 359.36 67.85 360.97 70 L 366.97 78 L 350.97 90 L 344.97 82 C 344.29 81.1 343.52 80.28 342.65 79.56 C 341.89 78.93 341.06 78.4 340.17 77.97 C 339.26 77.54 338.3 77.22 337.31 77.01 C 336.17 76.77 335.01 76.65 333.84 76.65 C 332.35 76.66 330.85 76.81 329.39 77.09 C 327.63 77.44 325.89 77.92 324.21 78.54 C 322.24 79.26 320.33 80.1 318.47 81.07 C 316.36 82.18 314.31 83.4 312.34 84.73 C 310.14 86.21 308.01 87.8 305.96 89.5 C 303.72 91.35 301.57 93.3 299.5 95.34 C 294.86 99.95 290.59 104.91 286.73 110.19 C 284.47 113.25 282.1 116.24 279.64 119.15 C 276.92 122.38 274.12 125.54 271.25 128.63 C 264.74 135.61 257.98 142.36 251 148.86 C 243.17 156.17 235.15 163.28 226.95 170.16 C 218.17 177.54 209.23 184.7 200.12 191.65 C 190.77 198.79 181.26 205.71 171.59 212.4 C 162.03 219.01 152.3 225.36 142.4 231.45 C 132.98 237.25 123.37 242.73 113.58 247.87 C 108.98 250.28 104.32 252.58 99.62 254.79 C 95.16 256.88 90.65 258.85 86.08 260.7 C 82.23 262.24 78.58 264.27 75.23 266.74 C 72.3 268.9 69.68 271.45 67.44 274.33 C 65.48 276.86 63.92 279.67 62.81 282.67 C 61.83 285.36 61.32 288.19 61.31 291.04 C 61.31 292.94 61.55 294.82 62.03 296.65 C 62.54 298.6 63.3 300.47 64.28 302.22 Z " fill="rgb(0,0,0)"/><path d=" M 425.922 109.471 C 423.334 97.499 416.416 86.861 406.463 79.619 C 395.743 71.829 382.343 68.609 369.253 70.679 C 356.163 72.749 344.413 79.949 336.623 90.669 C 327.183 103.659 317.263 116.289 306.883 128.549 C 297.153 140.039 286.973 151.149 276.373 161.859 C 266.263 172.069 255.743 181.889 244.863 191.279 C 234.363 200.339 223.513 208.969 212.323 217.149 C 201.333 225.179 190.033 232.769 178.443 239.889 C 166.913 246.969 155.103 253.569 143.033 259.699 C 130.863 265.869 118.443 271.559 105.813 276.729 C 92.853 282.029 79.683 286.819 66.353 291.079 C 53.723 295.119 43.203 304.009 37.123 315.789 C 31.053 327.569 29.903 341.299 33.933 353.929 C 37.963 366.549 46.863 377.069 58.643 383.149 C 67.446 387.693 77.339 389.477 87.043 388.397 C 86.672 361.594 106.895 334.592 140.654 321.263 C 203.578 296.419 326.697 202.948 363.645 152.702 C 382.394 127.205 405.349 112.185 425.922 109.471 Z  M 231.83 233.84 C 231.83 233.83 231.82 233.83 231.81 233.83 C 230.17 233.33 228.47 233.07 226.75 233.07 C 223.35 233.05 220.02 234.12 217.26 236.11 C 214.54 238.08 212.56 240.91 211.64 244.14 C 209.97 250.02 206.56 255.26 201.86 259.18 C 199.62 261.04 197.11 262.54 194.41 263.62 C 191.7 264.71 188.81 265.27 185.9 265.29 C 184.81 265.29 183.72 265.21 182.64 265.04 C 181.87 264.92 181.1 264.86 180.32 264.86 C 179.05 264.85 177.78 265.05 176.57 265.47 C 175.62 265.8 174.74 266.3 173.99 266.97 C 173.34 267.54 172.82 268.25 172.46 269.05 C 172.07 269.95 171.87 270.92 171.88 271.9 C 171.88 272.14 171.89 272.37 171.91 272.61 C 171.91 272.68 171.92 272.74 171.92 272.8 L 171.95 273.6 C 171.95 273.66 171.95 273.71 171.95 273.76 C 171.97 276.13 171.37 278.45 170.22 280.52 C 169.08 282.5 167.49 284.18 165.58 285.44 C 163.68 286.69 161.57 287.6 159.36 288.14 C 156.99 288.72 154.57 289.01 152.13 288.99 C 149.02 288.97 145.92 288.59 142.89 287.85 C 140.88 287.37 138.82 287.13 136.74 287.12 C 134.84 287.11 132.94 287.36 131.1 287.87 C 129.59 288.29 128.17 288.95 126.88 289.84 C 125.85 290.54 124.97 291.46 124.31 292.51 C 123.7 293.52 123.32 294.66 123.21 295.83 C 122.95 298.56 122.1 301.19 120.71 303.55 C 119.34 305.83 117.53 307.81 115.38 309.36 C 113.2 310.94 110.78 312.12 108.21 312.88 C 105.51 313.68 102.7 314.08 99.89 314.06 C 97.46 314.05 95.04 313.78 92.67 313.26 C 91.68 313.04 90.67 312.93 89.67 312.93 C 87.61 312.94 85.58 313.38 83.7 314.22 C 81.64 315.15 79.76 316.45 78.16 318.05 C 76.35 319.85 74.84 321.93 73.69 324.2 C 72.39 326.75 71.49 329.47 71 332.29 C 70.77 333.59 70.04 334.76 68.96 335.52 C 67.87 336.28 66.53 336.59 65.22 336.36 C 63.92 336.14 62.75 335.4 61.99 334.32 C 61.22 333.23 60.92 331.89 61.15 330.58 C 61.8 326.79 63.02 323.11 64.77 319.68 C 66.4 316.45 68.54 313.51 71.1 310.96 C 73.56 308.51 76.44 306.53 79.6 305.1 C 82.76 303.68 86.18 302.94 89.65 302.93 C 91.39 302.93 93.13 303.12 94.83 303.49 C 96.51 303.87 98.22 304.06 99.93 304.06 C 101.77 304.07 103.61 303.81 105.38 303.29 C 106.86 302.85 108.26 302.17 109.51 301.26 C 110.56 300.5 111.44 299.54 112.11 298.44 C 112.75 297.35 113.14 296.14 113.26 294.89 C 113.51 292.19 114.38 289.58 115.8 287.26 C 117.2 285.02 119.04 283.09 121.21 281.59 C 123.42 280.08 125.86 278.95 128.43 278.24 C 131.15 277.48 133.97 277.11 136.79 277.12 C 139.63 277.13 142.47 277.47 145.23 278.13 C 147.52 278.69 149.86 278.97 152.21 278.99 C 153.82 279 155.42 278.81 156.98 278.43 C 158.09 278.16 159.14 277.7 160.1 277.08 C 160.68 276.69 161.16 276.18 161.52 275.59 C 161.8 275.07 161.95 274.49 161.95 273.9 L 161.93 273.29 C 161.9 272.84 161.88 272.39 161.88 271.94 C 161.87 269.55 162.35 267.19 163.31 265 C 164.25 262.89 165.64 261 167.38 259.46 C 169.11 257.94 171.13 256.77 173.32 256.01 C 175.59 255.23 177.97 254.84 180.37 254.86 C 181.64 254.86 182.92 254.96 184.18 255.16 C 184.74 255.25 185.3 255.29 185.86 255.29 C 187.52 255.28 189.16 254.95 190.69 254.34 C 192.42 253.65 194.03 252.69 195.45 251.5 C 198.61 248.87 200.9 245.35 202.02 241.4 C 203.56 236.01 206.86 231.29 211.4 228 C 215.88 224.78 221.26 223.05 226.77 223.07 C 229.49 223.07 232.19 223.48 234.78 224.28 C 234.8 224.28 234.81 224.29 234.83 224.29 C 236.32 224.77 237.88 225.02 239.45 225.04 C 240.5 225.05 241.56 224.87 242.55 224.51 C 243.28 224.23 243.95 223.81 244.51 223.26 C 245.07 222.69 245.5 222.01 245.77 221.27 C 246.15 220.22 246.34 219.11 246.32 217.99 C 246.32 217.28 246.27 216.57 246.17 215.87 C 246.17 215.87 246.17 215.87 246.16 215.86 C 246.01 214.83 245.94 213.79 245.94 212.75 C 245.93 209.63 246.65 206.56 248.04 203.77 C 249.42 201.04 251.37 198.64 253.76 196.73 C 256.22 194.77 259.02 193.27 262.01 192.32 C 265.24 191.29 268.6 190.78 271.99 190.8 C 272.01 190.8 272.03 190.8 272.05 190.8 L 273.27 190.82 L 274.62 190.85 C 276.55 190.87 278.48 190.63 280.35 190.15 C 281.69 189.82 282.97 189.25 284.12 188.47 C 284.87 187.97 285.49 187.3 285.95 186.51 C 286.31 185.84 286.5 185.09 286.5 184.32 C 286.47 183.17 286.21 182.05 285.73 181.01 C 284.66 178.68 284.1 176.16 284.07 173.61 C 284.07 170.92 284.74 168.27 286.03 165.91 C 287.33 163.59 289.11 161.58 291.26 160.01 C 293.52 158.36 296.02 157.1 298.69 156.27 C 301.63 155.34 304.69 154.8 307.77 154.67 C 310.12 154.56 312.45 154.15 314.7 153.46 C 316.44 152.94 318.09 152.14 319.58 151.1 C 320.63 150.37 321.52 149.43 322.17 148.34 C 322.65 147.52 322.9 146.59 322.91 145.65 C 322.9 144.82 322.74 144 322.43 143.23 C 321.67 141.32 321.28 139.28 321.27 137.21 C 321.29 134.39 322.03 131.62 323.43 129.16 C 324.84 126.71 326.71 124.57 328.95 122.85 C 331.33 121 333.98 119.52 336.79 118.44 C 339.91 117.24 343.15 116.42 346.47 116 C 348.75 115.71 350.96 114.97 352.97 113.83 C 354.89 112.72 356.58 111.26 357.95 109.52 C 359.4 107.68 360.51 105.59 361.25 103.37 C 362.06 100.92 362.46 98.35 362.45 95.77 C 362.45 93.51 362.17 91.27 361.63 89.08 C 361.63 89.07 361.63 89.07 361.63 89.07 L 361.34 87.88 C 361.03 86.6 361.24 85.23 361.92 84.1 C 362.61 82.97 363.72 82.15 365.01 81.84 C 366.3 81.53 367.66 81.74 368.79 82.43 C 369.93 83.11 370.74 84.23 371.05 85.51 L 371.34 86.69 C 372.07 89.65 372.44 92.69 372.45 95.73 C 372.47 99.39 371.89 103.02 370.75 106.5 C 369.65 109.83 367.97 112.95 365.8 115.71 C 363.64 118.45 360.97 120.76 357.94 122.5 C 354.8 124.3 351.33 125.46 347.73 125.92 C 345.21 126.24 342.74 126.86 340.37 127.78 C 338.46 128.5 336.67 129.51 335.06 130.76 C 333.87 131.68 332.86 132.82 332.11 134.13 C 331.58 135.07 331.29 136.14 331.27 137.23 C 331.28 138.02 331.43 138.81 331.72 139.55 C 332.49 141.48 332.9 143.54 332.91 145.62 C 332.9 148.37 332.17 151.06 330.78 153.43 C 329.39 155.76 327.52 157.76 325.29 159.31 C 322.94 160.95 320.35 162.21 317.61 163.03 C 314.56 163.96 311.41 164.51 308.23 164.66 C 306 164.76 303.8 165.14 301.67 165.81 C 300.05 166.32 298.53 167.08 297.16 168.08 C 296.19 168.79 295.38 169.7 294.78 170.75 C 294.32 171.61 294.08 172.57 294.07 173.55 C 294.09 174.68 294.34 175.79 294.81 176.82 C 295.88 179.14 296.46 181.66 296.5 184.21 C 296.52 186.72 295.89 189.19 294.68 191.39 C 293.46 193.54 291.76 195.38 289.72 196.76 C 287.61 198.18 285.27 199.22 282.81 199.85 C 280.09 200.54 277.3 200.88 274.5 200.85 C 274.48 200.85 274.47 200.85 274.45 200.85 L 273.08 200.82 L 271.89 200.8 C 269.57 200.79 267.26 201.14 265.05 201.85 C 263.22 202.43 261.5 203.35 260 204.55 C 258.74 205.55 257.71 206.81 256.98 208.25 C 256.29 209.64 255.93 211.18 255.94 212.74 C 255.94 213.3 255.98 213.85 256.06 214.41 C 256.23 215.57 256.32 216.74 256.32 217.92 C 256.35 220.23 255.95 222.53 255.16 224.71 C 254.39 226.81 253.17 228.73 251.59 230.32 C 250.01 231.9 248.11 233.11 246.02 233.89 C 243.88 234.67 241.62 235.06 239.34 235.04 C 236.78 235.01 234.25 234.6 231.81 233.83 C 231.8 233.83 231.8 233.82 231.79 233.82 L 231.83 233.84 L 231.83 233.84 Z  M 234.78 224.28 C 234.8 224.28 234.81 224.29 234.83 224.29 L 234.78 224.28 L 234.78 224.28 Z  M 231.83 233.84 C 231.82 233.83 231.8 233.83 231.79 233.82 L 231.83 233.84 L 231.83 233.84 Z  M 246.17 215.87 C 246.17 215.87 246.17 215.87 246.16 215.86 L 246.17 215.87 L 246.17 215.87 Z  M 246.17 215.87 C 246.17 215.87 246.17 215.87 246.16 215.86 L 246.17 215.87 L 246.17 215.87 Z  M 256.06 214.41" fill-rule="evenodd" fill="rgb(0,0,0)"/><path d=" M 228.74 404 C 231.02 402.64 233.74 402.23 236.32 402.88 C 238.89 403.52 241.1 405.17 242.46 407.44 C 243.82 409.72 244.23 412.44 243.58 415.01 C 242.94 417.58 241.3 419.8 239.02 421.16 C 231.07 425.92 222.92 430.36 214.61 434.47 C 210.84 436.33 207.01 438.09 203.15 439.76 C 199.53 441.32 195.87 442.77 192.16 444.12 C 188.69 445.39 185.18 446.53 181.63 447.56 C 178.3 448.53 174.93 449.36 171.54 450.06 C 168.33 450.72 165.1 451.23 161.85 451.59 C 158.77 451.93 155.67 452.1 152.57 452.11 C 149.02 452.12 145.48 451.86 141.97 451.34 C 137.79 450.71 133.64 449.86 129.55 448.79 C 125.57 447.75 121.67 446.44 117.86 444.88 C 114.13 443.35 110.52 441.51 107.09 439.39 C 103.67 437.28 100.46 434.83 97.52 432.1 C 94.53 429.32 91.86 426.22 89.54 422.86 C 87.15 419.39 85.16 415.66 83.59 411.74 C 81.94 407.6 80.72 403.3 79.96 398.91 C 79.13 394.16 78.72 389.35 78.74 384.53 C 78.76 380.34 79.01 376.16 79.52 372.01 C 80.05 367.51 81.15 363.09 82.79 358.86 C 84.39 354.77 86.47 350.88 88.96 347.27 C 91.45 343.69 94.25 340.34 97.35 337.28 C 100.49 334.18 103.84 331.28 107.38 328.63 C 111.01 325.89 114.77 323.33 118.65 320.94 C 122.65 318.48 126.72 316.13 130.87 313.9 C 135.12 311.61 139.42 309.39 143.75 307.25 C 148.16 305.05 152.59 302.89 157.02 300.74 C 161.15 298.74 165.28 296.72 169.4 294.68 C 173.5 292.66 177.57 290.58 181.62 288.44 C 185.61 286.34 189.55 284.15 193.45 281.88 C 197.24 279.67 200.97 277.34 204.62 274.89 C 217.83 266.01 230.82 256.82 243.6 247.34 C 257.87 236.78 271.85 225.85 285.52 214.54 C 292.38 208.86 299.14 203.06 305.8 197.14 C 312.22 191.44 318.51 185.59 324.67 179.6 C 330.42 174.02 336.01 168.27 341.41 162.35 C 346.26 157.05 350.89 151.55 355.27 145.86 C 357.6 142.81 360.1 139.89 362.74 137.1 C 365.49 134.2 368.37 131.42 371.37 128.79 C 377.56 123.33 384.23 118.44 391.3 114.18 C 394.83 112.05 398.47 110.09 402.2 108.32 C 405.88 106.57 409.65 105.04 413.5 103.74 C 417.28 102.46 421.14 101.45 425.06 100.71 C 428.91 99.99 432.82 99.62 436.74 99.6 C 439.99 99.59 443.23 99.88 446.42 100.47 C 449.65 101.07 452.81 102.02 455.83 103.3 C 458.94 104.63 461.87 106.32 464.57 108.34 C 467.38 110.44 469.92 112.87 472.15 115.57 C 475.38 119.47 478.22 123.67 480.62 128.13 C 482.93 132.41 484.83 136.89 486.3 141.53 C 487.74 146.04 488.79 150.66 489.46 155.34 C 490.12 159.95 490.44 164.59 490.43 169.23 C 490.42 175.69 489.85 182.13 488.74 188.49 C 487.68 194.65 486.17 200.73 484.25 206.69 C 482.43 212.33 480.26 217.86 477.74 223.23 C 475.43 228.18 472.8 232.98 469.87 237.58 C 468.58 239.6 467.22 241.57 465.8 243.5 C 464.24 245.63 462.62 247.72 460.96 249.78 C 457.2 254.44 453.3 258.99 449.26 263.42 C 444.76 268.38 440.15 273.26 435.45 278.04 C 430.47 283.12 425.41 288.12 420.28 293.04 C 410.11 302.8 399.66 312.27 388.95 321.43 C 384.16 325.53 379.3 329.53 374.37 333.44 C 370.16 336.79 365.86 340.02 361.46 343.12 C 359.3 344.65 356.61 345.25 354 344.8 C 351.38 344.35 349.05 342.88 347.53 340.71 C 346 338.55 345.39 335.86 345.84 333.25 C 346.29 330.63 347.77 328.31 349.93 326.78 C 354.02 323.9 358.02 320.9 361.93 317.78 C 366.67 314.02 371.35 310.17 375.95 306.23 C 386.38 297.32 396.54 288.11 406.43 278.61 C 411.42 273.83 416.34 268.97 421.18 264.03 C 425.7 259.43 430.13 254.74 434.47 249.96 C 438.23 245.83 441.88 241.58 445.4 237.23 C 446.87 235.4 448.3 233.54 449.69 231.64 C 450.85 230.07 451.96 228.46 453.02 226.81 C 455.48 222.94 457.68 218.92 459.62 214.76 C 461.78 210.15 463.65 205.4 465.21 200.55 C 466.85 195.48 468.13 190.31 469.04 185.07 C 469.95 179.82 470.42 174.51 470.43 169.19 C 470.44 165.5 470.18 161.82 469.66 158.17 C 469.15 154.58 468.34 151.04 467.24 147.59 C 466.15 144.14 464.73 140.8 463.02 137.61 C 461.24 134.32 459.13 131.2 456.74 128.32 C 455.52 126.84 454.12 125.5 452.58 124.34 C 451.17 123.29 449.63 122.4 448 121.71 C 446.33 121 444.58 120.47 442.79 120.14 C 440.82 119.78 438.82 119.6 436.82 119.6 C 434.1 119.62 431.4 119.87 428.73 120.37 C 425.75 120.93 422.81 121.7 419.93 122.68 C 416.81 123.73 413.76 124.97 410.78 126.39 C 407.65 127.87 404.6 129.51 401.63 131.31 C 395.59 134.95 389.88 139.14 384.58 143.8 C 382.03 146.04 379.59 148.39 377.26 150.86 C 375.09 153.14 373.04 155.54 371.13 158.04 C 366.4 164.19 361.41 170.13 356.17 175.85 C 350.5 182.06 344.64 188.1 338.61 193.95 C 332.23 200.14 325.73 206.19 319.08 212.09 C 312.25 218.17 305.31 224.12 298.27 229.95 C 284.32 241.48 270.06 252.64 255.51 263.41 C 242.48 273.08 229.23 282.44 215.77 291.5 C 211.77 294.18 207.68 296.74 203.52 299.16 C 199.38 301.58 195.18 303.9 190.94 306.14 C 186.74 308.35 182.52 310.51 178.26 312.61 C 174.1 314.67 169.92 316.72 165.73 318.74 C 161.36 320.86 156.99 323 152.64 325.16 C 148.5 327.21 144.4 329.33 140.33 331.52 C 136.54 333.56 132.81 335.71 129.14 337.97 C 125.79 340.03 122.54 342.25 119.4 344.62 C 116.58 346.73 113.91 349.03 111.41 351.51 C 109.19 353.7 107.18 356.09 105.41 358.65 C 103.8 360.98 102.46 363.49 101.42 366.13 C 100.4 368.78 99.71 371.56 99.38 374.39 C 98.96 377.78 98.75 381.19 98.74 384.6 C 98.73 388.25 99.03 391.88 99.66 395.47 C 100.19 398.5 101.03 401.47 102.17 404.33 C 103.18 406.86 104.47 409.27 106.01 411.52 C 107.5 413.68 109.22 415.67 111.14 417.45 C 113.13 419.3 115.29 420.95 117.6 422.38 C 120.11 423.92 122.73 425.26 125.45 426.38 C 128.44 427.6 131.5 428.63 134.62 429.44 C 138.01 430.33 141.45 431.04 144.93 431.56 C 147.44 431.93 149.98 432.12 152.52 432.11 C 154.9 432.11 157.28 431.97 159.65 431.71 C 162.29 431.42 164.91 431 167.51 430.47 C 170.39 429.88 173.24 429.17 176.07 428.35 C 179.18 427.45 182.27 426.44 185.31 425.33 C 188.66 424.11 191.96 422.8 195.22 421.39 C 198.78 419.86 202.3 418.24 205.77 416.53 C 213.59 412.66 221.26 408.48 228.74 404 Z " fill="rgb(0,0,0)"/><path d=" M 322.73 346.85 C 324.92 345.36 327.62 344.8 330.22 345.29 C 332.83 345.78 335.13 347.29 336.63 349.48 C 338.12 351.67 338.68 354.37 338.19 356.97 C 337.7 359.58 336.19 361.88 334 363.38 C 329.16 366.67 324.31 369.96 319.46 373.23 C 315.61 375.81 311.76 378.38 307.9 380.94 C 302.64 384.42 297.36 387.86 292.05 391.26 C 288.62 393.45 285.17 395.61 281.69 397.73 C 278.6 399.61 275.48 401.44 272.33 403.21 C 270.58 404.19 268.81 405.11 267 405.97 C 264.61 407.12 261.86 407.26 259.36 406.37 C 256.86 405.49 254.81 403.64 253.67 401.25 C 252.53 398.86 252.39 396.11 253.27 393.61 C 254.16 391.11 256 389.06 258.39 387.92 C 259.79 387.25 261.17 386.54 262.52 385.78 C 265.47 384.12 268.4 382.41 271.29 380.64 C 274.64 378.61 277.96 376.53 281.26 374.42 C 286.49 371.07 291.69 367.68 296.86 364.26 C 300.68 361.73 304.49 359.19 308.29 356.63 C 313.11 353.39 317.93 350.13 322.73 346.85 Z " fill="rgb(0,0,0)"/><path d=" M 427.89 128.51 C 429.85 128.14 431.87 128.56 433.51 129.69 C 435.15 130.81 436.28 132.54 436.65 134.49 C 437.02 136.44 436.6 138.47 435.48 140.11 C 434.36 141.75 432.63 142.88 430.67 143.25 C 428.15 143.72 425.68 144.41 423.27 145.29 C 420.86 146.17 418.52 147.22 416.26 148.44 C 413.97 149.67 411.76 151.05 409.64 152.55 C 407.49 154.06 405.42 155.68 403.43 157.4 C 399.48 160.84 395.78 164.55 392.36 168.51 C 389.16 172.19 386.12 175.99 383.22 179.92 C 381.65 182.03 380.02 184.11 378.34 186.15 C 376.44 188.46 374.48 190.74 372.48 192.98 C 371.05 194.59 369.59 196.17 368.11 197.74 C 366.49 199.46 364.85 201.15 363.19 202.82 C 362 204.02 360.81 205.21 359.6 206.39 C 358.31 207.65 357.02 208.89 355.72 210.13 C 351.58 214.05 347.37 217.88 343.07 221.62 C 337.93 226.1 332.71 230.48 327.42 234.77 C 325.88 236.03 323.9 236.61 321.92 236.41 C 319.94 236.2 318.12 235.22 316.87 233.67 C 315.62 232.13 315.03 230.15 315.24 228.17 C 315.44 226.19 316.43 224.37 317.97 223.12 C 323.13 218.94 328.21 214.67 333.22 210.31 C 337.36 206.71 341.42 203.02 345.4 199.24 C 346.65 198.06 347.88 196.87 349.11 195.67 C 350.26 194.54 351.41 193.41 352.54 192.27 C 354.11 190.68 355.67 189.07 357.2 187.44 C 358.59 185.97 359.96 184.49 361.3 182.98 C 363.17 180.9 364.98 178.78 366.76 176.62 C 368.27 174.78 369.75 172.9 371.17 170.98 C 374.29 166.76 377.58 162.65 381.02 158.69 C 384.91 154.19 389.11 149.97 393.6 146.07 C 395.97 144.02 398.43 142.1 400.99 140.29 C 403.6 138.44 406.33 136.76 409.14 135.24 C 412.03 133.68 415.03 132.33 418.11 131.2 C 421.3 130.04 424.57 129.14 427.89 128.51 Z " fill="rgb(0,0,0)"/></g></svg>