<?xml version="1.0" encoding="UTF-8"?>
<svg id="Calque_5" xmlns="http://www.w3.org/2000/svg" version="1.1" viewBox="0 0 113.39 113.39">
  <!-- Generator: Adobe Illustrator 29.1.0, SVG Export Plug-In . SVG Version: 2.1.0 Build 142)  -->
  <defs>
    <style>
      .st0 {
        fill: none;
      }
    </style>
  </defs>
  <g>
    <path d="M51.92,37.29c.28.12,3.91,7.55,4.95,7.82l5.44-8.05c4.87-.03,11.89,5.16,11.57,10.24-.11,1.77-5.99,5.18-7.48,7.46-3.93,6.01-2.28,12.5,1.51,18.03-2.7,1.91-5.2,3.86-7.84,5.88-1.46,1.12-2.09,2.78-4.51,2.87-2.25-4.38-7.34-5.8-10.98-8.75,4.56-6.77,5.2-13.46-.05-20.06-3.29-4.14-8.83-2.86-4.02-10.31,1.82-2.82,8.13-6.51,11.41-5.13Z"/>
    <path d="M13.12,99.66l.04-13.09c5.7-9.55,15.71-11.82,26.34-10.16,6.63,1.03,9.61,5.03,14.11,9.23v13.92"/>
    <path d="M76.02,52.34c17.37-3.94,17.78,23.23,1.35,20.82-11.1-1.63-11.48-18.53-1.35-20.82Z"/>
    <path d="M41.31,69.94c-11.04,11.32-26.65-8.08-13.55-16.18,11.69-7.23,21.17,8.35,13.55,16.18Z"/>
    <path d="M53.4,13.17c16.3-3.39,17.47,20.18,2.83,20-11.93-.15-13.81-17.71-2.83-20Z"/>
    <path d="M58.99,99.54l.04-13.09c5.7-9.55,15.71-11.82,26.34-10.16,6.63,1.03,9.61,5.03,14.11,9.23v13.92"/>
  </g>
  <rect class="st0" x="-.14" y="-.1" width="113.39" height="113.39"/>
</svg>