<?xml version="1.0" encoding="UTF-8"?>
<svg id="Calque_4" xmlns="http://www.w3.org/2000/svg" version="1.1" viewBox="0 0 113.39 113.39">
  <!-- Generator: Adobe Illustrator 29.1.0, SVG Export Plug-In . SVG Version: 2.1.0 Build 142)  -->
  <defs>
    <style>
      .st0 {
        fill: none;
      }

      .st1 {
        stroke: #000;
        stroke-miterlimit: 10;
      }
    </style>
  </defs>
  <path class="st1" d="M74.22,20.62s.4.15.56.31c5.96,5.72,11.21,10.97,16.93,16.93.36.38.19.93.98.4.62-.41,3.07-3.42,3.49-3.33l3.44,4.2-3.68,3.74,2.68,4.05-4.58,4.62-3.12-3.71c-1.1,1.45-3.45,2.98-4.42,4.39-.16.23-.19.19-.09.48.26.75,2.74,3.15,2.62,3.8l-4.58,4.62-3.1-3.7-4.59,4.76c.43.64,2.84,3.35,2.7,3.9l-4.58,4.63-3.1-3.7-4.58,4.58,2.85,3.92-4.76,4.79c-.6-.45-2.56-3.79-3.1-3.7l-4.43,4.58,2.69,3.92-4.75,4.79-2.93-3.72-4.61,4.6,2.73,3.89-4.75,4.61-2.96-3.52-3.72,3.53-3.4-4.24c-.05-.57,3.08-2.9,3.4-3.59.1-.22.15-.37,0-.58-5.53-6.37-11.44-12.54-18-17.81l-3.75,3.5-4.37-3.39,3.53-3.72-3.52-3.1,4.61-4.61,4.04,2.7,4.54-4.48-3.82-3.03,4.69-4.7c.57-.26,3.41,2.82,4.17,2.62.31-.08,4.48-4.23,4.43-4.54l-3.7-2.96,4.69-4.71,4.01,2.8,4.59-4.72-3.7-2.95,4.79-4.6,3.89,2.73c1.16-1.42,3.44-2.96,4.44-4.38.12-.17.33-.27.1-.5l-3.62-2.82c1.42-1.1,3-3.5,4.39-4.43.22-.15.22-.18.5-.1.95.26,2.63,2.26,3.53,2.57.29.1.25.07.48-.09,1.41-.97,2.94-3.31,4.39-4.42l-3.71-3.12,4.5-4.52c.64-.32,3.28,2.52,4.17,2.62l3.75-3.68,4.2,3.44c.09.42-2.93,2.9-3.33,3.49-.13.2-.3.43-.16.67ZM78.81,43.61c.55.59,3.73,4.46,4.07,4.4l4.43-4.58c-1.59-2.22-3.49-4.35-5.38-6.36-3.9-4.16-8.19-8.11-12.57-11.71l-.44.07-4.3,4.48c4.92,4.37,9.72,8.88,14.18,13.7ZM59.62,34.78c-1.13,1.39-3.45,2.95-4.41,4.35-.12.17-.28.27-.1.49,6.4,5.38,12.36,11.27,17.72,17.7l.46.28c1.14-1.41,3.47-2.97,4.44-4.38.12-.17.28-.27.1-.49-5.69-6.34-11.53-12.63-18.21-17.95ZM62.38,55.73c-3.83-4.04-7.97-7.77-12.18-11.4l-4.76,4.58c6.39,5.74,12.66,11.63,18.1,18.29l4.77-4.77c-1.94-2.26-3.88-4.54-5.93-6.7ZM46.54,59.06c-.7-.66-5.54-5.08-5.93-5.14l-4.75,4.57c6.52,5.67,12.65,11.74,18.29,18.29l4.57-4.75c-3.78-4.55-7.85-8.93-12.18-12.97ZM30.89,63.51l-4.44,4.57.09.3c6.37,5.35,12.31,11.2,17.6,17.62l.4.19,4.57-4.44-.11-.4c-3.87-4.5-7.93-8.92-12.27-12.97-1.44-1.34-3.55-3.39-5.09-4.49-.21-.15-.49-.41-.75-.36Z"/>
  <rect class="st0" x="-.14" y="-.1" width="113.39" height="113.39"/>
</svg>