<svg xmlns="http://www.w3.org/2000/svg" viewBox="-3.2 -6.4 70.4 86.4" x="0px" y="0px"><title>Game Genre - 25 - 64 - Solid - Stroke 2 - 2020</title><g data-name="Layer 2"><g><path d="M54.5,44h-4a1,1,0,0,1-1-1V20H36.77l-.91,1.51a1,1,0,0,1-1.21.43L29.49,20h-15V43a1,1,0,0,1-1,1h-4a4,4,0,0,0-4,4,4,4,0,0,0,4,4H21.7l2.75-1.83a1,1,0,0,1,.95-.09,1,1,0,0,1,.59.76L26.18,52h9.91l2-3.5A.94.94,0,0,1,39,48a1,1,0,0,1,.86.55L41.62,52H54.5a4,4,0,0,0,4-4,4,4,0,0,0-4-4ZM19.29,24.71a1,1,0,0,1,1.42-1.42L22,24.59l1.29-1.3a1,1,0,0,1,1.42,1.42L23.41,26l1.3,1.29a1,1,0,0,1,0,1.42,1,1,0,0,1-1.42,0L22,27.41l-1.29,1.3a1,1,0,0,1-1.42,0,1,1,0,0,1,0-1.42L20.59,26ZM23,31v1.5a1,1,0,0,1-2,0V31a1,1,0,0,1,2,0ZM20.1,47.79a2.44,2.44,0,0,0-.1.71V49a1,1,0,0,1-2,0v-.5a4.53,4.53,0,0,1,.18-1.27,1,1,0,0,1,1.92.56Zm4-1.79H22.5a2.53,2.53,0,0,0-1,.2,1.09,1.09,0,0,1-.39.08,1,1,0,0,1-.39-1.92A4.43,4.43,0,0,1,22.5,44h1.65a1,1,0,1,1,0,2Zm.92-7.88a1,1,0,0,1-.92.61.84.84,0,0,1-.38-.08,4.48,4.48,0,0,1-2.57-2.81,1,1,0,0,1,1.91-.6,2.5,2.5,0,0,0,1.43,1.57A1,1,0,0,1,25.07,38.12Zm1.1-.12a1,1,0,0,1,1-1h3.06a1,1,0,1,1,0,2H27.17A1,1,0,0,1,26.17,38Zm4.09,8H27.21a1,1,0,0,1,0-2h3.05a1,1,0,1,1,0,2Zm3-9h3.06a1,1,0,0,1,0,2H33.28a1,1,0,0,1,0-2Zm3.1,9H33.32a1,1,0,1,1,0-2h3.06a1,1,0,0,1,0,2Zm6.21-2.62a4.47,4.47,0,0,1-2.91,2.46.75.75,0,0,1-.26,0,1,1,0,0,1-.26-2,2.47,2.47,0,0,0,1.61-1.37,1,1,0,0,1,1.82.84Zm-4.17-5.52a1,1,0,0,1,1.22-.71,4.46,4.46,0,0,1,2.93,2.43,1,1,0,0,1-.48,1.33,1,1,0,0,1-.42.09,1,1,0,0,1-.91-.57,2.51,2.51,0,0,0-1.63-1.35A1,1,0,0,1,38.42,37.86ZM40.23,33A3,3,0,0,1,38,34a3,3,0,0,1-3-3,3,3,0,0,1,1-2.23A4,4,0,1,1,40.23,33Z"/><path d="M57.33,13.17A4,4,0,0,0,54.5,12h-3V42h3a7.18,7.18,0,0,1,1,.09l.08,0a6.37,6.37,0,0,1,1,.26l.12,0a6.71,6.71,0,0,1,.85.42l.13.08a6.05,6.05,0,0,1,.77.56l.06.05V24L56.28,21.7a1,1,0,0,1-.28-.77,1,1,0,0,1,.39-.72l2.11-1.63V16A4,4,0,0,0,58,14.13,3.85,3.85,0,0,0,57.33,13.17Z"/><path d="M40,27a2,2,0,0,0-2,2s0,.16,0,.18a1,1,0,0,1-.5,1A1,1,0,0,0,37,31a1,1,0,0,0,1.87.48,1,1,0,0,1,1-.5H40a2,2,0,1,0,0-4Z"/><path d="M6.33,42.91l.13-.08a6.23,6.23,0,0,1,.86-.42l.12,0a5.93,5.93,0,0,1,.94-.26l.09,0a7,7,0,0,1,1-.09h3V12h-3a4,4,0,0,0-4,4V30.93l2,1.21a1,1,0,0,1,.47.68,1,1,0,0,1-.2.8L5.5,36.48v7l.06,0A6.13,6.13,0,0,1,6.33,42.91Z"/></g></g></svg>