<svg xmlns="http://www.w3.org/2000/svg" xmlns:xlink="http://www.w3.org/1999/xlink" version="1.1" x="0px" y="0px" viewBox="0 0 100 125" enable-background="new 0 0 100 100" xml:space="preserve"><path d="M53.312,19.04l-1.04,6.344l-1.508-5.557c-14.876,4.625-29.727,9.491-46.049,0.542c0,19.958,0,39.917,0,59.875  c5.374,2.946,10.588,4.39,15.697,4.842l0.912-7.15l2.391,7.313c15.971,0.144,31.001-8.532,46.768-10.306l1.155-6.263l1.692,6.019  c7.101-0.398,14.369,0.775,21.955,4.934c0-19.959,0-39.918,0-59.876C80.453,11.627,66.837,14.903,53.312,19.04z M15.874,51.621  l-2.334,0.076c-0.001-0.04-0.031-0.999,0.062-2.445l2.331,0.149C15.847,50.726,15.874,51.613,15.874,51.621z M16.566,44.869  l-2.278-0.515c0.411-1.819,0.98-3.425,1.692-4.771l2.064,1.091C17.43,41.84,16.932,43.251,16.566,44.869z M24.6,36.636  c-1.504-0.077-2.755,0.228-3.862,0.931l-1.252-1.971c1.506-0.959,3.239-1.397,5.235-1.293L24.6,36.636z M32.314,39.93  c-0.893-1-2.025-1.763-3.46-2.331l0.859-2.171c1.758,0.695,3.219,1.687,4.343,2.948L32.314,39.93z M34.256,43.648l2.249-0.633  c0.482,1.716,0.649,3.443,0.768,4.929l-2.329,0.187C34.833,46.756,34.681,45.16,34.256,43.648z M37.466,57.75  c-0.747-1.358-1.361-2.939-1.826-4.698l2.258-0.598c0.417,1.576,0.96,2.979,1.615,4.172L37.466,57.75z M45.786,63.261  c-1.805-0.001-3.454-0.513-4.898-1.521l1.336-1.916c1.061,0.741,2.226,1.101,3.562,1.102l0.223-0.003l0.071,2.334  C45.981,63.259,45.883,63.261,45.786,63.261z M51.163,61.889l-1.119-2.05c1.214-0.663,2.054-1.583,2.644-2.896l2.131,0.957  C54.021,59.677,52.824,60.981,51.163,61.889z M56.229,51.937c-0.051,0.354-0.102,0.706-0.154,1.054l-2.311-0.348l0.152-1.039  c0.176-1.223,0.357-2.488,0.648-3.75l2.277,0.525C56.572,49.545,56.396,50.761,56.229,51.937z M58.57,44.536l-1.84-1.438  c0.945-1.21,2.207-2.37,3.75-3.449l1.339,1.914C60.466,42.509,59.373,43.509,58.57,44.536z M65.854,39.271l-0.98-2.119  c1.315-0.609,2.23-0.923,2.268-0.937l0.756,2.21C67.889,38.428,67.051,38.718,65.854,39.271z M77.995,40.648  c-0.879-1.085-1.858-2.101-2.905-3.046c-0.95,1.242-1.768,2.583-2.398,3.971c-0.316,0.696-2.572,0.95-2.107-0.071  c0.812-1.785,1.911-3.483,3.215-5.002c-0.972-0.779-1.991-1.497-3.043-2.142c-1.021-0.627,1.014-1.672,1.764-1.211  c0.925,0.567,1.825,1.194,2.697,1.865c0.967-0.933,2.007-1.778,3.112-2.491c0.743-0.479,2.696-0.117,1.411,0.712  c-1.193,0.77-2.298,1.713-3.297,2.769c1.324,1.13,2.553,2.371,3.63,3.701C80.734,40.519,78.573,41.361,77.995,40.648z"/></svg>