<svg xmlns="http://www.w3.org/2000/svg" version="1.1" viewBox="-5.0 -10.0 110.0 135.0">
 <path d="m65.445 20.59c-0.49219 0.12891-1.0078 0.12891-1.5 0l-28.648-7.543-26.477 6.9648v66.172l25.73-6.7695c0.24609-0.066406 0.5-0.10156 0.74609-0.10156 0.25391 0 0.50781 0.035156 0.75391 0.10156l28.648 7.543 26.477-6.9648v-66.176l-25.73 6.7695zm-33.609 32.352h-9.7812c-3.8828-0.12109-3.8906-5.7617 0-5.8828h9.7812c3.8828 0.12109 3.8906 5.7617 0 5.8828zm18.34 0h-9.7812c-3.8828-0.12109-3.8906-5.7617 0-5.8828h9.7812c3.8867 0.11719 3.8906 5.7656 0 5.8828zm28.984 4.1641c1.8633 1.8047 0.47656 5.0664-2.0781 5.0195-0.75391 0-1.5117-0.28906-2.082-0.85938l-7.0898-7.1016-7.0938 7.1016c-1.1445 1.1445-3.0117 1.1484-4.1602 0s-1.1484-3.0117 0-4.1602l7.0938-7.1055-7.0938-7.1055c-1.1484-1.1484-1.1484-3.0117 0-4.1602 1.1523-1.1484 3.0117-1.1484 4.1602 0l7.0938 7.1016 7.0898-7.1016c1.1484-1.1484 3.0078-1.1484 4.1602 0 1.1484 1.1484 1.1523 3.0117 0 4.1602l-7.0938 7.1055z"/></svg>