<?xml version="1.0" encoding="UTF-8"?>
<svg id="Calque_3" xmlns="http://www.w3.org/2000/svg" version="1.1" viewBox="0 0 113.39 113.39">
  <path d="M83.84,51.34c6.42-4.55,12.17-10,16.98-16.23.5-2.57-.78-7.08.88-9.14,2.16-2.7,10.92-2.63,11.48,1.81l-.02,58.5c-.11.79-.92,1.62-1.67,1.83s-8.12.22-8.89-.03c-.69-.23-1.72-1.31-1.72-2.04v-46.04l-5.44,6.15c-9.09,14.8-23.69,34.58-43.69,30.65-15.21-2.99-26.48-19-34-31.4l-5.31-6.02v46.79c-.18,1.23-1.27,1.98-2.44,2.07-1.96.15-9.29.35-9.78-2.07V28.37c0-1,.63-2.63,1.45-3.19,2.66-1.81,8.3-1.28,10,.86,1.5,1.89.39,5.68.76,8.01.09.57,3.55,4.6,4.19,5.33,5.66,6.46,12.39,12.14,19.86,16.41,25.94,12.36,47.35-4.44,47.35-4.44Z"/>
</svg>