<svg xmlns="http://www.w3.org/2000/svg" style="display: none;">
  
  <symbol id="picto-bivouac" viewBox="-5.0 -10.0 110.0 135.0">
    <path d="m79.688 49.836v6.6992c-19.789 8.1484-39.586 8.0859-59.375 0.11719v-6.8203c3.2266-0.23047 6.1133-1.2148 8.293-3.0898 2.5508-2.1953 4.207-5.6328 4.207-10.703 0-5.7227-2.1445-12.324-5.4336-16.695-2.3984-3.1875-5.4258-5.1797-8.6289-5.1797s-6.2266 1.9922-8.6289 5.1797c-3.2891 4.3672-5.4336 10.973-5.4336 16.695 0 5.0703 1.6562 8.5078 4.207 10.703 2.1797 1.875 5.0703 2.8594 8.293 3.0898v7.0234c-1.3242 0.82812-3.5391 2.793-4.2422 6.9375-0.14453 0.85156 0.42969 1.6602 1.2773 1.8047 0.85156 0.14453 1.6602-0.42969 1.8047-1.2773 0.22656-1.3398 0.67188-2.3516 1.1602-3.1016v20.566c-3.6953 0.26172-7.3867 0.57031-11.086 0.92188-0.85937 0.085938-1.4922 0.84766-1.4102 1.707 0.082032 0.85547 0.84766 1.4883 1.7031 1.4062 29.27-2.7891 58.336-2.7695 87.203 0 0.85938 0.082032 1.6211-0.54687 1.707-1.4062 0.082031-0.85937-0.55078-1.6211-1.4062-1.7031-3.6953-0.35547-7.3867-0.66406-11.086-0.92969v-20.559c0.48828 0.75 0.92969 1.7578 1.1602 3.1016 0.14453 0.85156 0.95312 1.4219 1.8047 1.2773 0.85156-0.14453 1.4219-0.94922 1.2773-1.8047-0.70313-4.1445-2.9141-6.1094-4.2422-6.9375v-7.0234c3.2266-0.23047 6.1133-1.2148 8.293-3.0898 2.5508-2.1953 4.207-5.6328 4.207-10.703 0-5.7227-2.1445-12.324-5.4336-16.695-2.3984-3.1875-5.4258-5.1797-8.6289-5.1797s-6.2266 1.9922-8.6289 5.1797c-3.2891 4.3672-5.4336 10.973-5.4336 16.695 0 5.0703 1.6562 8.5078 4.207 10.703 2.1797 1.875 5.0703 2.8594 8.293 3.0898zm-59.375 12.012v19.727c19.883-1.2891 39.676-1.2812 59.375-0.007813v-19.668c-9.8867 10.906-19.82 16.172-29.695 16.117-9.8672-0.054687-19.797-5.4297-29.68-16.168z" fill-rule="evenodd"/>
  </symbol>

    <symbol id="picto-carte" viewBox="-5.0 -10.0 110.0 135.0">
    <path d="m65.445 20.59c-0.49219 0.12891-1.0078 0.12891-1.5 0l-28.648-7.543-26.477 6.9648v66.172l25.73-6.7695c0.24609-0.066406 0.5-0.10156 0.74609-0.10156 0.25391 0 0.50781 0.035156 0.75391 0.10156l28.648 7.543 26.477-6.9648v-66.176l-25.73 6.7695zm-33.609 32.352h-9.7812c-3.8828-0.12109-3.8906-5.7617 0-5.8828h9.7812c3.8828 0.12109 3.8906 5.7617 0 5.8828zm18.34 0h-9.7812c-3.8828-0.12109-3.8906-5.7617 0-5.8828h9.7812c3.8867 0.11719 3.8906 5.7656 0 5.8828zm28.984 4.1641c1.8633 1.8047 0.47656 5.0664-2.0781 5.0195-0.75391 0-1.5117-0.28906-2.082-0.85938l-7.0898-7.1016-7.0938 7.1016c-1.1445 1.1445-3.0117 1.1484-4.1602 0s-1.1484-3.0117 0-4.1602l7.0938-7.1055-7.0938-7.1055c-1.1484-1.1484-1.1484-3.0117 0-4.1602 1.1523-1.1484 3.0117-1.1484 4.1602 0l7.0938 7.1016 7.0898-7.1016c1.1484-1.1484 3.0078-1.1484 4.1602 0 1.1484 1.1484 1.1523 3.0117 0 4.1602l-7.0938 7.1055z"/>
    </symbol>

    <symbol id="picto-filet" viewBox="-5.0 -10.0 110.0 135.0">
        <path d="m79.941 80.832c-0.18359 0-0.36719-0.042969-0.53516-0.12891-5.3125-2.7344-16.582-4.4297-29.406-4.4297s-24.09 1.6992-29.406 4.4297c-0.42969 0.22266-0.94922 0.15625-1.3086-0.16406-0.36328-0.31641-0.49219-0.82422-0.32812-1.2773 6.5195-18.059 6.5195-40.492 0-58.551-0.16406-0.45313-0.035156-0.96094 0.32812-1.2773 0.36328-0.31641 0.88281-0.38281 1.3086-0.16406 5.3125 2.7344 16.582 4.4297 29.402 4.4297 12.824 0 24.09-1.6992 29.406-4.4297 0.42969-0.21875 0.94531-0.15625 1.3086 0.16406 0.36328 0.31641 0.49219 0.82422 0.32812 1.2773-6.5195 18.059-6.5195 40.492 0 58.551 0.16406 0.45312 0.035157 0.96094-0.32812 1.2773-0.21875 0.19141-0.49219 0.29297-0.77344 0.29297zm-57.918-58.395c5.5508 17.234 5.5508 37.863 0 55.098 6.1992-2.2812 16.336-3.6094 27.977-3.6094s21.781 1.3281 27.977 3.6094c-5.5508-17.234-5.5508-37.863 0-55.098-6.1953 2.2812-16.336 3.6094-27.977 3.6094s-21.781-1.3281-27.977-3.6094z" fill-rule="evenodd"/>
        <path d="m30.629 77.746c-0.32031 0-0.63281-0.13281-0.85547-0.37109-0.26953-0.28906-0.375-0.69141-0.28516-1.0742 3.7539-15.586 3.6797-36.746-0.19531-52.656-0.09375-0.38281 0.011719-0.78906 0.28516-1.0781 0.26953-0.28906 0.67188-0.42188 1.0586-0.35156 5.4961 0.96094 12.371 1.4922 19.363 1.4922 6.9727 0 13.836-0.52734 19.324-1.4844 0.38672-0.070312 0.78516 0.066406 1.0586 0.35547 0.26953 0.28906 0.375 0.69531 0.28516 1.0781-3.8555 15.844-3.9492 36.895-0.23828 52.461 0.058593 0.14062 0.09375 0.29687 0.09375 0.45703 0 0.64844-0.52344 1.1719-1.1719 1.1719h-0.015624c-0.066407 0-0.13281-0.003906-0.19922-0.015625-5.4531-0.93359-12.246-1.4492-19.133-1.4492-6.9023 0-13.711 0.51953-19.172 1.457-0.066406 0.011719-0.13281 0.015625-0.19922 0.015625zm1.3438-52.941c3.4258 15.438 3.4961 35.18 0.1875 50.336 5.293-0.79688 11.414-1.2109 17.836-1.2109 6.4062 0 12.516 0.41406 17.801 1.207-3.3086-15.156-3.2344-34.895 0.1875-50.328-5.2891 0.80078-11.598 1.2344-17.988 1.2344-6.4062 0-12.727-0.4375-18.027-1.2422z" fill-rule="evenodd"/>
        <path d="m41.652 76.523c-0.31641 0-0.62109-0.12891-0.84375-0.35938-0.23828-0.24609-0.35547-0.58594-0.32422-0.92578 1.4883-15.184 1.457-35.008-0.082031-50.5-0.035156-0.33984 0.082031-0.67969 0.32422-0.92969 0.23828-0.24609 0.57031-0.375 0.91406-0.35547 5.4258 0.33203 11.246 0.33594 16.672 0.003906 0.33984-0.019531 0.67578 0.10938 0.91406 0.35547 0.23828 0.24609 0.35547 0.58594 0.32422 0.92969-1.5273 15.422-1.5664 35.141-0.097656 50.305 0.027344 0.097656 0.039063 0.19922 0.039063 0.30469 0 0.64844-0.52344 1.1719-1.1719 1.1719h-0.015624c-0.023438 0-0.046876 0-0.070313-0.003907-5.3789-0.32422-11.137-0.32422-16.516 0.003907-0.023438 0-0.046875 0.003906-0.070312 0.003906zm1.2148-50.656c1.3789 14.953 1.4062 33.555 0.078124 48.238 4.6094-0.23438 9.4531-0.23438 14.066-0.003907-1.3281-14.688-1.3008-33.285 0.078125-48.234-4.6641 0.23828-9.5625 0.23437-14.223-0.003907z" fill-rule="evenodd"/>
        <path d="m49.98 76.273c-0.64844 0-1.1719-0.52734-1.1719-1.1719v-50.227c0-0.64844 0.52344-1.1719 1.1719-1.1719 0.64844 0 1.1719 0.52344 1.1719 1.1719v50.223c0 0.64844-0.52734 1.1719-1.1719 1.1719z" fill-rule="evenodd"/>
        <path d="m22.812 71.316c-0.29297 0-0.57812-0.10938-0.80078-0.31641-0.30469-0.28516-0.43359-0.70703-0.34375-1.1133 2.8711-12.832 2.8711-26.965 0-39.797-0.089844-0.40625 0.039062-0.82812 0.34375-1.1133 0.30469-0.28516 0.73438-0.38672 1.1328-0.26562 7.7461 2.2891 17.484 3.5469 27.418 3.5469h0.003906c9.5859 0 18.91-1.1914 26.25-3.3594 0.39453-0.11719 0.82812-0.015626 1.1328 0.26953 0.30469 0.28516 0.43359 0.70312 0.34375 1.1094-2.8125 12.711-2.8125 26.715 0 39.426 0.089843 0.40625-0.042969 0.82812-0.34375 1.1094-0.30469 0.28516-0.73438 0.38672-1.1328 0.26562-7.3398-2.1641-16.664-3.3594-26.25-3.3594-9.9336 0-19.668 1.2617-27.418 3.5469-0.10938 0.03125-0.21875 0.046875-0.33203 0.046875zm1.5469-39.832c2.4062 12.008 2.4062 25.004 0 37.012 7.6211-2.0156 16.836-3.1172 26.203-3.1172 9.1523 0 17.758 1.0078 25.039 2.9297-2.3555-11.887-2.3555-24.75 0-36.637-7.2812 1.9219-15.887 2.9336-25.039 2.9336h-0.003906c-9.3672 0-18.582-1.1016-26.203-3.1172z" fill-rule="evenodd"/>
        <path d="m24.605 59.746c-0.30469 0-0.59766-0.11719-0.81641-0.33203-0.25391-0.24609-0.37891-0.59375-0.34766-0.94531 0.50781-5.625 0.50781-11.332 0-16.957-0.03125-0.35156 0.097656-0.69922 0.34766-0.94531 0.25391-0.24609 0.60156-0.37109 0.95313-0.32422 7.4609 0.86719 16.633 1.3438 25.82 1.3438 8.9883 0 17.527-0.4375 24.691-1.2656 0.34766-0.039062 0.69922 0.078126 0.95312 0.32422 0.25391 0.24609 0.38281 0.59375 0.35156 0.94141-0.49609 5.5781-0.49609 11.23 0 16.805 0.03125 0.35156-0.097656 0.69531-0.35156 0.94141-0.25391 0.24609-0.60547 0.36328-0.95312 0.32422-7.1641-0.82812-15.699-1.2656-24.691-1.2656-9.1914 0-18.359 0.47656-25.824 1.3438-0.046875 0.003906-0.089843 0.007813-0.13672 0.007813zm1.2852-17.016c0.36328 4.8242 0.36328 9.6992 0 14.523 7.2773-0.77734 15.969-1.2031 24.672-1.2031 8.4922 0 16.594 0.38672 23.539 1.125-0.35547-4.7734-0.35547-9.5938 0-14.371-6.9453 0.73828-15.047 1.125-23.539 1.125-8.7031 0-17.398-0.42578-24.672-1.2031z" fill-rule="evenodd"/>
        <path d="m75.008 51.16h-50.02c-0.64844 0-1.1719-0.52344-1.1719-1.1719 0-0.64844 0.52344-1.1719 1.1719-1.1719h50.02c0.64844 0 1.1719 0.52344 1.1719 1.1719 0 0.64844-0.52344 1.1719-1.1719 1.1719z" fill-rule="evenodd"/>
        <path d="m79.941 21.488c-0.30078 0-0.59766-0.11328-0.82812-0.34375-0.45703-0.45703-0.45703-1.1992 0-1.6562l6.8125-6.8125c0.45703-0.45703 1.1992-0.45703 1.6562 0s0.45703 1.1992 0 1.6562l-6.8125 6.8125c-0.23047 0.23047-0.52734 0.34375-0.82812 0.34375z" fill-rule="evenodd"/>
        <path d="m89.398 16.773c-0.66406 0-1.2891-0.25781-1.7578-0.72656l-3.4375-3.4336c-0.96875-0.96875-0.96875-2.5469 0-3.5156l8.1133-8.1133c0.9375-0.9375 2.5781-0.9375 3.5156 0l3.4336 3.4336c0.46875 0.46875 0.72656 1.0938 0.72656 1.7578 0 0.66406-0.25781 1.2891-0.72656 1.7578l-8.1133 8.1133c-0.46875 0.46875-1.0938 0.72656-1.7578 0.72656zm4.6797-14.172c-0.027344 0-0.066406 0.007813-0.10156 0.039063l-8.1133 8.1133c-0.054687 0.054688-0.054687 0.14844 0 0.19922l3.4336 3.4336c0.066406 0.066406 0.13281 0.066406 0.19922 0l8.1133-8.1133c0.046875-0.046876 0.046875-0.15234 0-0.19922l-3.4375-3.4375c-0.03125-0.035157-0.074219-0.039063-0.097656-0.039063z" fill-rule="evenodd"/>
        <path d="m86.754 87.645c-0.30078 0-0.59766-0.11328-0.82812-0.34375l-6.8125-6.8125c-0.45703-0.45703-0.45703-1.1992 0-1.6562s1.1992-0.45703 1.6562 0l6.8125 6.8125c0.45703 0.45703 0.45703 1.1992 0 1.6562-0.23047 0.23047-0.52734 0.34375-0.82812 0.34375z" fill-rule="evenodd"/>
        <path d="m94.078 99.719c-0.66406 0-1.2891-0.25781-1.7578-0.72656l-8.1133-8.1133c-0.96875-0.96875-0.96875-2.5469 0-3.5156l3.4336-3.4336c0.9375-0.9375 2.5781-0.9375 3.5156 0l8.1133 8.1133c0.46875 0.46875 0.72656 1.0938 0.72656 1.7578 0 0.66406-0.25781 1.2891-0.72656 1.7578l-3.4336 3.4336c-0.46875 0.46875-1.0938 0.72656-1.7578 0.72656zm-4.6797-14.172c-0.027344 0-0.066407 0.007813-0.10156 0.039063l-3.4336 3.4336c-0.054687 0.054688-0.054687 0.14844 0 0.19922l8.1133 8.1133c0.0625 0.066407 0.13281 0.066407 0.19922 0l3.4336-3.4375c0.046875-0.046875 0.050781-0.15234 0-0.19922l-8.1133-8.1133c-0.03125-0.035156-0.074219-0.039062-0.10156-0.039062z" fill-rule="evenodd"/>
        <path d="m89.09 95.277c-0.30078 0-0.59766-0.11328-0.82812-0.34375-0.45703-0.45703-0.45703-1.1992 0-1.6562l5.293-5.293c0.45703-0.45703 1.1992-0.45703 1.6562 0 0.45703 0.45703 0.45703 1.1992 0 1.6562l-5.293 5.293c-0.23047 0.23047-0.52734 0.34375-0.82812 0.34375z" fill-rule="evenodd"/>
        <path d="m20.059 21.488c-0.30078 0-0.60156-0.11328-0.82812-0.34375l-6.8125-6.8125c-0.45703-0.45703-0.45703-1.1992 0-1.6562s1.1992-0.45703 1.6562 0l6.8125 6.8125c0.45703 0.45703 0.45703 1.1992 0 1.6562-0.23047 0.23047-0.52734 0.34375-0.82812 0.34375z" fill-rule="evenodd"/>
        <path d="m10.602 16.773c-0.66406 0-1.2891-0.25781-1.7578-0.72656l-8.1133-8.1133c-0.46875-0.46875-0.72656-1.0938-0.72656-1.7578 0-0.66406 0.25781-1.2891 0.72656-1.7578l3.4336-3.4336c0.9375-0.9375 2.5781-0.9375 3.5156 0l8.1133 8.1133c0.96875 0.96875 0.96875 2.5469 0 3.5156l-3.4336 3.4336c-0.46875 0.46875-1.0938 0.72656-1.7578 0.72656zm-4.6797-14.172c-0.027344 0-0.066406 0.007813-0.10156 0.039063l-3.4336 3.4336c-0.046875 0.046875-0.046875 0.15234 0 0.19922l8.1133 8.1133c0.066406 0.066406 0.13672 0.066406 0.19922 0l3.4336-3.4336c0.054688-0.054687 0.054688-0.14844 0-0.19922l-8.1133-8.1133c-0.035156-0.035156-0.074219-0.039063-0.10156-0.039063z" fill-rule="evenodd"/>
        <path d="m13.246 87.645c-0.30078 0-0.60156-0.11328-0.82812-0.34375-0.45703-0.45703-0.45703-1.1992 0-1.6562l6.8125-6.8125c0.45703-0.45703 1.1992-0.45703 1.6562 0s0.45703 1.1992 0 1.6562l-6.8125 6.8125c-0.23047 0.23047-0.52734 0.34375-0.82812 0.34375z" fill-rule="evenodd"/>
        <path d="m5.9219 99.719c-0.66406 0-1.2891-0.25781-1.7578-0.72656l-3.4336-3.4336c-0.46875-0.46875-0.72656-1.0938-0.72656-1.7578 0-0.66406 0.25781-1.2891 0.72656-1.7578l8.1133-8.1133c0.9375-0.93359 2.5781-0.9375 3.5156 0l3.4336 3.4336c0.46875 0.46875 0.72656 1.0938 0.72656 1.7578 0 0.66406-0.25781 1.2891-0.72656 1.7578l-8.1133 8.1133c-0.46875 0.46875-1.0898 0.72656-1.7539 0.72656zm4.6797-14.172c-0.027343 0-0.066406 0.007813-0.10156 0.039063l-8.1133 8.1133c-0.046875 0.046875-0.046875 0.15234 0 0.19922l3.4336 3.4336c0.066407 0.066407 0.13281 0.066407 0.19922 0l8.1133-8.1133c0.046876-0.046875 0.046876-0.15234 0-0.19922l-3.4336-3.4336c-0.03125-0.035157-0.074219-0.039063-0.10156-0.039063z" fill-rule="evenodd"/>
        <path d="m10.906 95.277c-0.30078 0-0.60156-0.11328-0.82812-0.34375l-5.293-5.293c-0.45703-0.45703-0.45703-1.1992 0-1.6562 0.45703-0.45703 1.1992-0.45703 1.6562 0l5.293 5.293c0.45703 0.45703 0.45703 1.1992 0 1.6562-0.23047 0.23047-0.52734 0.34375-0.82812 0.34375z" fill-rule="evenodd"/>
        <path d="m94.387 12.336c-0.30078 0-0.60156-0.11328-0.82812-0.34375l-5.293-5.293c-0.45703-0.45703-0.45703-1.1992 0-1.6562s1.1992-0.45703 1.6562 0l5.293 5.293c0.45703 0.45703 0.45703 1.1992 0 1.6562-0.23047 0.23047-0.52734 0.34375-0.82812 0.34375z" fill-rule="evenodd"/>
        <path d="m5.6133 12.336c-0.30078 0-0.59766-0.11328-0.82812-0.34375-0.45703-0.45703-0.45703-1.1992 0-1.6562l5.293-5.293c0.45703-0.45703 1.1992-0.45703 1.6562 0s0.45703 1.1992 0 1.6562l-5.293 5.293c-0.23047 0.23047-0.52734 0.34375-0.82812 0.34375z" fill-rule="evenodd"/>
    </symbol>

    <symbol id="picto-rail" viewBox="0 0 113.39 113.39">
        <path d="M74.22,20.62s.4.15.56.31c5.96,5.72,11.21,10.97,16.93,16.93.36.38.19.93.98.4.62-.41,3.07-3.42,3.49-3.33l3.44,4.2-3.68,3.74,2.68,4.05-4.58,4.62-3.12-3.71c-1.1,1.45-3.45,2.98-4.42,4.39-.16.23-.19.19-.09.48.26.75,2.74,3.15,2.62,3.8l-4.58,4.62-3.1-3.7-4.59,4.76c.43.64,2.84,3.35,2.7,3.9l-4.58,4.63-3.1-3.7-4.58,4.58,2.85,3.92-4.76,4.79c-.6-.45-2.56-3.79-3.1-3.7l-4.43,4.58,2.69,3.92-4.75,4.79-2.93-3.72-4.61,4.6,2.73,3.89-4.75,4.61-2.96-3.52-3.72,3.53-3.4-4.24c-.05-.57,3.08-2.9,3.4-3.59.1-.22.15-.37,0-.58-5.53-6.37-11.44-12.54-18-17.81l-3.75,3.5-4.37-3.39,3.53-3.72-3.52-3.1,4.61-4.61,4.04,2.7,4.54-4.48-3.82-3.03,4.69-4.7c.57-.26,3.41,2.82,4.17,2.62.31-.08,4.48-4.23,4.43-4.54l-3.7-2.96,4.69-4.71,4.01,2.8,4.59-4.72-3.7-2.95,4.79-4.6,3.89,2.73c1.16-1.42,3.44-2.96,4.44-4.38.12-.17.33-.27.1-.5l-3.62-2.82c1.42-1.1,3-3.5,4.39-4.43.22-.15.22-.18.5-.1.95.26,2.63,2.26,3.53,2.57.29.1.25.07.48-.09,1.41-.97,2.94-3.31,4.39-4.42l-3.71-3.12,4.5-4.52c.64-.32,3.28,2.52,4.17,2.62l3.75-3.68,4.2,3.44c.09.42-2.93,2.9-3.33,3.49-.13.2-.3.43-.16.67ZM78.81,43.61c.55.59,3.73,4.46,4.07,4.4l4.43-4.58c-1.59-2.22-3.49-4.35-5.38-6.36-3.9-4.16-8.19-8.11-12.57-11.71l-.44.07-4.3,4.48c4.92,4.37,9.72,8.88,14.18,13.7ZM59.62,34.78c-1.13,1.39-3.45,2.95-4.41,4.35-.12.17-.28.27-.1.49,6.4,5.38,12.36,11.27,17.72,17.7l.46.28c1.14-1.41,3.47-2.97,4.44-4.38.12-.17.28-.27.1-.49-5.69-6.34-11.53-12.63-18.21-17.95ZM62.38,55.73c-3.83-4.04-7.97-7.77-12.18-11.4l-4.76,4.58c6.39,5.74,12.66,11.63,18.1,18.29l4.77-4.77c-1.94-2.26-3.88-4.54-5.93-6.7ZM46.54,59.06c-.7-.66-5.54-5.08-5.93-5.14l-4.75,4.57c6.52,5.67,12.65,11.74,18.29,18.29l4.57-4.75c-3.78-4.55-7.85-8.93-12.18-12.97ZM30.89,63.51l-4.44,4.57.09.3c6.37,5.35,12.31,11.2,17.6,17.62l.4.19,4.57-4.44-.11-.4c-3.87-4.5-7.93-8.92-12.27-12.97-1.44-1.34-3.55-3.39-5.09-4.49-.21-.15-.49-.41-.75-.36Z"/>
    </symbol>

    <symbol id="picto-trotti" viewBox="0 0 113.39 113.39">
        <path d="M63.79,15.18c.06,2.15-.06,4.33,0,6.48.03,1.02.85,1.84,1.87,1.85.86,0,1.72.02,2.56.05,1.06.04,2.13-.06,3.2.01l7.02,22.13.18,1.06-14.02,26.27c-.68.65-2.53,1.11-3.46,1.18-2.94.22-6.29-.06-9.29-.01-3.43.05-6.94.22-10.36.28-1.52.03-3.06-.03-4.58,0-.08-.45.57-.3.75-.68.12-.25.06-.44,0-.69-.07-.33-1.18-3.34-1.3-3.48-.38-.43-1.39-.03-1.92-.26l-.76-1.56.74-.92-.14-.5c-.65-.57-2.25-3.02-3.02-3.05-.75-.03-1.45.54-2.16-.24-.16-.21.18-1.1-.05-1.58-.2-.42-3.65-1.93-4.24-1.92-.92.01-.95.96-1.39,1.09-.17.05-1.01-.07-1.17-.14-.55-.25-.11-1.45-.81-1.78-.67-.32-4.49-.44-4.89.09-.49.65.51,1.68-1.58,1.85-1.13.09-1.14-1.33-2.03-1.34-.52,0-3.63,1.41-3.88,1.85-.46.8.71,1.49-.62,2.38-.63.42-1.11-.89-1.98-.49-.16.08-1.23,1.2-1.44,1.43-.28.3-1.32,1.55-1.44,1.83-.45,1.01.42,1.31.67,2.17,0,.05-.56.89-.61.92-.63.38-1.51-.23-2.15.54-.43.52-1.33,3.51-1.31,4.17.02.79,1.47,1.06,1.52,1.49.19,1.54-.27,1.1-1.1,1.65-.79.52-.62,1.97-.55,2.86.05.62.26,2.58.91,2.77.96.29,1.67-.76,2.06,1.22.21,1.05-1.32,1.07-1.31,1.71,0,.57,2.04,3.84,2.56,4,.7.21,1.23-.59,1.68-.47l1.09,1.12c.16.39-.82,1.12-.73,1.79.06.42,1.04,1.07,1.41,1.33.4.29,2.02,1.37,2.38,1.45,1.05.22,2.14-1.93,3.42-.16l.05,1.52c.19.3,4.12.92,4.68.83,1.04-.17,1.02-1.42,1.33-1.6.17-.1,1.7-.08,1.82.1.13.37.09,1.25.47,1.44.64.32,4.02-.44,4.58-.88.7-.56,0-1.88.56-2.31,1.55-1.21,1.86.83,3.09.5.42-.11,2.88-2.22,3.11-2.62.51-.86-1.26-1.79-.07-2.93.72-.69,1.58.44,2.39-.21.61-.48,1.92-3.61,1.91-4.38-.01-.99-1.12-.65-1.24-1.38-.05-.3.26-1.74.5-1.82,5.95-.12,11.92.09,17.87-.01,6.32-.11,11.09.58,14.78-5.43,2.21-3.6,4.27-7.99,6.24-11.78l5.53-10.65c-.01.23.03.44.1.65,1.49,4.93,3.4,9.98,5.3,14.77.8,2.01,2.77,5.64,3.14,7.51.07.33-.2.74-.22,1.16-.18,3.96,4.8,6.32,7.45,3.07,2.24-2.74-.03-6.7-3.4-6.71l-2.68-6.87c5.73-1.63,12.22,2.32,13.72,7.99,1.5,5.67-1.19,11.38-6.66,13.54-9.5,3.74-18.24-6.07-14.45-15.27.25-.61,1.68-2.83,1.66-3.11-.03-.37-1.51-3.18-1.8-3.81-.24-.52-1.26-3.58-1.76-3.45-.86.7-2.82,2.21-3.25,3.18-.66,1.51,1.62,1.67.32,3.18-.69.79-2.03.1-2.53.61-.51.52-1.28,3.08-1.34,3.85-.12,1.47,1.37,1.2,1.42,1.88.12,1.57-1.46,1.05-1.78,2.12-.19.62.04,3.47.28,4.1.4,1.06,1.94.49,2.13.76.09.54.55,1.03.37,1.6-.15.48-1.25.58-1.21,1.24.03.43,1.81,3.47,2.19,3.83.95.92,1.51-.69,2.33,0,.12.1.66.84.68.97.06.62-.88,1.04-.48,1.97.21.49,3.11,2.6,3.68,2.6,1.06,0,1.78-1.84,3.13-.15l-.03,1.75c.22.21,3.53.85,4,.86,1.23.03,1.01-1.15,1.62-1.52.4-.24,1.13-.15,1.58-.06.54.89-.19,1.77,1.28,1.72.61-.02,3.74-.73,4.11-1.09.76-.73-.32-2.29,1.48-2.44.56.37,1.01,1.32,1.78,1.21.33-.05,3.01-1.88,3.28-2.2,1.03-1.21-1.23-2.48.71-3.51.61.06,1.46.82,2.04.39.15-.11,1.1-1.6,1.26-1.88.28-.49,1.01-1.8.99-2.29-.03-.79-.58-.75-.89-1.17-.5-.67.07-1.35.21-2.04,1.3.14,1.83.81,2.14-.79.14-.76.33-3.25.14-3.9-.21-.73-1.82-.72-1.89-1.01-.39-2.17,1.74-1.46,1.31-3.74-.09-.47-1.22-3.43-1.53-3.53-1.07.15-1.99.71-2.44-.69-.31-.98,1.12-1.3.84-2.19-.09-.3-2.66-2.86-2.95-2.95-.66-.2-1.27.52-1.84.49-.33-.02-1.41-.67-1.45-1.03-.05-.49.57-1.05.15-1.75-.27-.44-3.59-1.87-4.12-1.8-.82.11-.83,1.04-1.21,1.23-.44.21-1.49,0-1.93-.26-.38-.46.28-1.51-.66-1.8-.52-.16-3.69-.13-4.18.07-.93.36-.54,1.35-.95,1.64-.2.14-1.51.37-1.68.26l-12.44-37.12c4.31-.55,4.25-6.96.17-7.89-2.64-.6-7.5-.28-10.43-.34M10.81,85.45c-6.8-8.03-.34-20.22,10.29-18.75,4.47.62,7.44,3.75,8.82,7.9l-5.67-.14-.2-.07c-2.39-3.65-8.07-3.16-9.93.72-2.85,5.95,4.62,11.37,9.72,7.13.57-.47.89-1.12,1.5-1.5h4.71c-2,8.7-13.4,11.61-19.25,4.71ZM18.96,78.94c-1.15-.26-.9-1.99,0-2.26,2.11-.63,2.44,2.82,0,2.26Z"/>
    </symbol>

    <symbol id="picto-video" viewBox="0 0 1024 1024">
        <path d="M432 356.16A32 32 0 0 0 384 384v256a32 32 0 0 0 48 27.84l224-128a32 32 0 0 0 0-55.68z m16 228.48v-145.6L576 512z"/>
        <path d="M864 32H160a128 128 0 0 0-128 128v704a128 128 0 0 0 128 128h704a128 128 0 0 0 128-128v-128H96V288h896V160a128 128 0 0 0-128-128z m-96 768h160v64a64 64 0 0 1-64 64h-96z m-224 0h160v128h-160z m-224 0h160v128h-160z m-64 0v128H160a64 64 0 0 1-64-64v-64zM256 224H96V160a64 64 0 0 1 64-64h96z m224 0h-160V96h160z m224 0h-160V96h160z m224 0h-160V96h96a64 64 0 0 1 64 64z"/>
        <path d="M960 260a32 32 0 0 0-32 32v460a32 32 0 0 0 64 0v-460a32 32 0 0 0-32-32z"/>
    </symbol>

    <symbol id="picto-groupe" viewBox="0 0 113.39 113.39">
        <path d="M51.92,37.29c.28.12,3.91,7.55,4.95,7.82l5.44-8.05c4.87-.03,11.89,5.16,11.57,10.24-.11,1.77-5.99,5.18-7.48,7.46-3.93,6.01-2.28,12.5,1.51,18.03-2.7,1.91-5.2,3.86-7.84,5.88-1.46,1.12-2.09,2.78-4.51,2.87-2.25-4.38-7.34-5.8-10.98-8.75,4.56-6.77,5.2-13.46-.05-20.06-3.29-4.14-8.83-2.86-4.02-10.31,1.82-2.82,8.13-6.51,11.41-5.13Z"/>
        <path d="M13.12,99.66l.04-13.09c5.7-9.55,15.71-11.82,26.34-10.16,6.63,1.03,9.61,5.03,14.11,9.23v13.92"/>
        <path d="M76.02,52.34c17.37-3.94,17.78,23.23,1.35,20.82-11.1-1.63-11.48-18.53-1.35-20.82Z"/>
        <path d="M41.31,69.94c-11.04,11.32-26.65-8.08-13.55-16.18,11.69-7.23,21.17,8.35,13.55,16.18Z"/>
        <path d="M53.4,13.17c16.3-3.39,17.47,20.18,2.83,20-11.93-.15-13.81-17.71-2.83-20Z"/>
        <path d="M58.99,99.54l.04-13.09c5.7-9.55,15.71-11.82,26.34-10.16,6.63,1.03,9.61,5.03,14.11,9.23v13.92"/>
    </symbol>

    <symbol id="picto-food" viewBox="0 0 512 640">
        <path d="M 64.28 302.22 L 69.19 310.94 L 51.76 320.74 L 46.86 312.03 C 45.03 308.79 43.63 305.32 42.68 301.72 C 41.77 298.22 41.3 294.62 41.31 291 C 41.33 285.81 42.25 280.66 44.04 275.78 C 45.85 270.84 48.42 266.22 51.65 262.07 C 55.01 257.73 58.96 253.89 63.37 250.63 C 68.07 247.17 73.19 244.32 78.61 242.15 C 82.83 240.44 87 238.62 91.13 236.68 C 95.56 234.6 99.95 232.42 104.3 230.15 C 113.68 225.23 122.89 219.98 131.92 214.42 C 141.51 208.52 150.95 202.36 160.21 195.95 C 169.63 189.44 178.89 182.71 187.98 175.76 C 196.85 168.99 205.55 162.02 214.08 154.85 C 222.02 148.18 229.78 141.31 237.36 134.23 C 244 128.05 250.42 121.63 256.62 114.99 C 259.27 112.14 261.85 109.23 264.36 106.25 C 266.53 103.68 268.62 101.04 270.62 98.34 C 275.1 92.22 280.04 86.47 285.42 81.13 C 287.91 78.67 290.51 76.32 293.21 74.09 C 295.76 71.98 298.41 70 301.15 68.15 C 303.75 66.4 306.44 64.79 309.21 63.35 C 311.84 61.97 314.56 60.77 317.34 59.75 C 320.01 58.78 322.75 58.01 325.54 57.47 C 328.25 56.94 331 56.66 333.77 56.65 C 336.34 56.64 338.92 56.91 341.44 57.44 C 343.98 57.97 346.45 58.81 348.79 59.92 C 351.17 61.06 353.4 62.49 355.43 64.17 C 357.5 65.89 359.36 67.85 360.97 70 L 366.97 78 L 350.97 90 L 344.97 82 C 344.29 81.1 343.52 80.28 342.65 79.56 C 341.89 78.93 341.06 78.4 340.17 77.97 C 339.26 77.54 338.3 77.22 337.31 77.01 C 336.17 76.77 335.01 76.65 333.84 76.65 C 332.35 76.66 330.85 76.81 329.39 77.09 C 327.63 77.44 325.89 77.92 324.21 78.54 C 322.24 79.26 320.33 80.1 318.47 81.07 C 316.36 82.18 314.31 83.4 312.34 84.73 C 310.14 86.21 308.01 87.8 305.96 89.5 C 303.72 91.35 301.57 93.3 299.5 95.34 C 294.86 99.95 290.59 104.91 286.73 110.19 C 284.47 113.25 282.1 116.24 279.64 119.15 C 276.92 122.38 274.12 125.54 271.25 128.63 C 264.74 135.61 257.98 142.36 251 148.86 C 243.17 156.17 235.15 163.28 226.95 170.16 C 218.17 177.54 209.23 184.7 200.12 191.65 C 190.77 198.79 181.26 205.71 171.59 212.4 C 162.03 219.01 152.3 225.36 142.4 231.45 C 132.98 237.25 123.37 242.73 113.58 247.87 C 108.98 250.28 104.32 252.58 99.62 254.79 C 95.16 256.88 90.65 258.85 86.08 260.7 C 82.23 262.24 78.58 264.27 75.23 266.74 C 72.3 268.9 69.68 271.45 67.44 274.33 C 65.48 276.86 63.92 279.67 62.81 282.67 C 61.83 285.36 61.32 288.19 61.31 291.04 C 61.31 292.94 61.55 294.82 62.03 296.65 C 62.54 298.6 63.3 300.47 64.28 302.22 Z"/>
        <path d="M 425.922 109.471 C 423.334 97.499 416.416 86.861 406.463 79.619 C 395.743 71.829 382.343 68.609 369.253 70.679 C 356.163 72.749 344.413 79.949 336.623 90.669 C 327.183 103.659 317.263 116.289 306.883 128.549 C 297.153 140.039 286.973 151.149 276.373 161.859 C 266.263 172.069 255.743 181.889 244.863 191.279 C 234.363 200.339 223.513 208.969 212.323 217.149 C 201.333 225.179 190.033 232.769 178.443 239.889 C 166.913 246.969 155.103 253.569 143.033 259.699 C 130.863 265.869 118.443 271.559 105.813 276.729 C 92.853 282.029 79.683 286.819 66.353 291.079 C 53.723 295.119 43.203 304.009 37.123 315.789 C 31.053 327.569 29.903 341.299 33.933 353.929 C 37.963 366.549 46.863 377.069 58.643 383.149 C 67.446 387.693 77.339 389.477 87.043 388.397 C 86.672 361.594 106.895 334.592 140.654 321.263 C 203.578 296.419 326.697 202.948 363.645 152.702 C 382.394 127.205 405.349 112.185 425.922 109.471 Z M 231.83 233.84 C 231.83 233.83 231.82 233.83 231.81 233.83 C 230.17 233.33 228.47 233.07 226.75 233.07 C 223.35 233.05 220.02 234.12 217.26 236.11 C 214.54 238.08 212.56 240.91 211.64 244.14 C 209.97 250.02 206.56 255.26 201.86 259.18 C 199.62 261.04 197.11 262.54 194.41 263.62 C 191.7 264.71 188.81 265.27 185.9 265.29 C 184.81 265.29 183.72 265.21 182.64 265.04 C 181.87 264.92 181.1 264.86 180.32 264.86 C 179.05 264.85 177.78 265.05 176.57 265.47 C 175.62 265.8 174.74 266.3 173.99 266.97 C 173.34 267.54 172.82 268.25 172.46 269.05 C 172.07 269.95 171.87 270.92 171.88 271.9 C 171.88 272.14 171.89 272.37 171.91 272.61 C 171.91 272.68 171.92 272.74 171.92 272.8 L 171.95 273.6 C 171.95 273.66 171.95 273.71 171.95 273.76 C 171.97 276.13 171.37 278.45 170.22 280.52 C 169.08 282.5 167.49 284.18 165.58 285.44 C 163.68 286.69 161.57 287.6 159.36 288.14 C 156.99 288.72 154.57 289.01 152.13 288.99 C 149.02 288.97 145.92 288.59 142.89 287.85 C 140.88 287.37 138.82 287.13 136.74 287.12 C 134.84 287.11 132.94 287.36 131.1 287.87 C 129.59 288.29 128.17 288.95 126.88 289.84 C 125.85 290.54 124.97 291.46 124.31 292.51 C 123.7 293.52 123.32 294.66 123.21 295.83 C 122.95 298.56 122.1 301.19 120.71 303.55 C 119.34 305.83 117.53 307.81 115.38 309.36 C 113.2 310.94 110.78 312.12 108.21 312.88 C 105.51 313.68 102.7 314.08 99.89 314.06 C 97.46 314.05 95.04 313.78 92.67 313.26 C 91.68 313.04 90.67 312.93 89.67 312.93 C 87.61 312.94 85.58 313.38 83.7 314.22 C 81.64 315.15 79.76 316.45 78.16 318.05 C 76.35 319.85 74.84 321.93 73.69 324.2 C 72.39 326.75 71.49 329.47 71 332.29 C 70.77 333.59 70.04 334.76 68.96 335.52 C 67.87 336.28 66.53 336.59 65.22 336.36 C 63.92 336.14 62.75 335.4 61.99 334.32 C 61.22 333.23 60.92 331.89 61.15 330.58 C 61.8 326.79 63.02 323.11 64.77 319.68 C 66.4 316.45 68.54 313.51 71.1 310.96 C 73.56 308.51 76.44 306.53 79.6 305.1 C 82.76 303.68 86.18 302.94 89.65 302.93 C 91.39 302.93 93.13 303.12 94.83 303.49 C 96.51 303.87 98.22 304.06 99.93 304.06 C 101.77 304.07 103.61 303.81 105.38 303.29 C 106.86 302.85 108.26 302.17 109.51 301.26 C 110.56 300.5 111.44 299.54 112.11 298.44 C 112.75 297.35 113.14 296.14 113.26 294.89 C 113.51 292.19 114.38 289.58 115.8 287.26 C 117.2 285.02 119.04 283.09 121.21 281.59 C 123.42 280.08 125.86 278.95 128.43 278.24 C 131.15 277.48 133.97 277.11 136.79 277.12 C 139.63 277.13 142.47 277.47 145.23 278.13 C 147.52 278.69 149.86 278.97 152.21 278.99 C 153.82 279 155.42 278.81 156.98 278.43 C 158.09 278.16 159.14 277.7 160.1 277.08 C 160.68 276.69 161.16 276.18 161.52 275.59 C 161.8 275.07 161.95 274.49 161.95 273.9 L 161.93 273.29 C 161.9 272.84 161.88 272.39 161.88 271.94 C 161.87 269.55 162.35 267.19 163.31 265 C 164.25 262.89 165.64 261 167.38 259.46 C 169.11 257.94 171.13 256.77 173.32 256.01 C 175.59 255.23 177.97 254.84 180.37 254.86 C 181.64 254.86 182.92 254.96 184.18 255.16 C 184.74 255.25 185.3 255.29 185.86 255.29 C 187.52 255.28 189.16 254.95 190.69 254.34 C 192.42 253.65 194.03 252.69 195.45 251.5 C 198.61 248.87 200.9 245.35 202.02 241.4 C 203.56 236.01 206.86 231.29 211.4 228 C 215.88 224.78 221.26 223.05 226.77 223.07 C 229.49 223.07 232.19 223.48 234.78 224.28 C 234.8 224.28 234.81 224.29 234.83 224.29 C 236.32 224.77 237.88 225.02 239.45 225.04 C 240.5 225.05 241.56 224.87 242.55 224.51 C 243.28 224.23 243.95 223.81 244.51 223.26 C 245.07 222.69 245.5 222.01 245.77 221.27 C 246.15 220.22 246.34 219.11 246.32 217.99 C 246.32 217.28 246.27 216.57 246.17 215.87 C 246.17 215.87 246.17 215.87 246.16 215.86 C 246.01 214.83 245.94 213.79 245.94 212.75 C 245.93 209.63 246.65 206.56 248.04 203.77 C 249.42 201.04 251.37 198.64 253.76 196.73 C 256.22 194.77 259.02 193.27 262.01 192.32 C 265.24 191.29 268.6 190.78 271.99 190.8 C 272.01 190.8 272.03 190.8 272.05 190.8 L 273.27 190.82 L 274.62 190.85 C 276.55 190.87 278.48 190.63 280.35 190.15 C 281.69 189.82 282.97 189.25 284.12 188.47 C 284.87 187.97 285.49 187.3 285.95 186.51 C 286.31 185.84 286.5 185.09 286.5 184.32 C 286.47 183.17 286.21 182.05 285.73 181.01 C 284.66 178.68 284.1 176.16 284.07 173.61 C 284.07 170.92 284.74 168.27 286.03 165.91 C 287.33 163.59 289.11 161.58 291.26 160.01 C 293.52 158.36 296.02 157.1 298.69 156.27 C 301.63 155.34 304.69 154.8 307.77 154.67 C 310.12 154.56 312.45 154.15 314.7 153.46 C 316.44 152.94 318.09 152.14 319.58 151.1 C 320.63 150.37 321.52 149.43 322.17 148.34 C 322.65 147.52 322.9 146.59 322.91 145.65 C 322.9 144.82 322.74 144 322.43 143.23 C 321.67 141.32 321.28 139.28 321.27 137.21 C 321.29 134.39 322.03 131.62 323.43 129.16 C 324.84 126.71 326.71 124.57 328.95 122.85 C 331.33 121 333.98 119.52 336.79 118.44 C 339.91 117.24 343.15 116.42 346.47 116 C 348.75 115.71 350.96 114.97 352.97 113.83 C 354.89 112.72 356.58 111.26 357.95 109.52 C 359.4 107.68 360.51 105.59 361.25 103.37 C 362.06 100.92 362.46 98.35 362.45 95.77 C 362.45 93.51 362.17 91.27 361.63 89.08 C 361.63 89.07 361.63 89.07 361.63 89.07 L 361.34 87.88 C 361.03 86.6 361.24 85.23 361.92 84.1 C 362.61 82.97 363.72 82.15 365.01 81.84 C 366.3 81.53 367.66 81.74 368.79 82.43 C 369.93 83.11 370.74 84.23 371.05 85.51 L 371.34 86.69 C 372.07 89.65 372.44 92.69 372.45 95.73 C 372.47 99.39 371.89 103.02 370.75 106.5 C 369.65 109.83 367.97 112.95 365.8 115.71 C 363.64 118.45 360.97 120.76 357.94 122.5 C 354.8 124.3 351.33 125.46 347.73 125.92 C 345.21 126.24 342.74 126.86 340.37 127.78 C 338.46 128.5 336.67 129.51 335.06 130.76 C 333.87 131.68 332.86 132.82 332.11 134.13 C 331.58 135.07 331.29 136.14 331.27 137.23 C 331.28 138.02 331.43 138.81 331.72 139.55 C 332.49 141.48 332.9 143.54 332.91 145.62 C 332.9 148.37 332.17 151.06 330.78 153.43 C 329.39 155.76 327.52 157.76 325.29 159.31 C 322.94 160.95 320.35 162.21 317.61 163.03 C 314.56 163.96 311.41 164.51 308.23 164.66 C 306 164.76 303.8 165.14 301.67 165.81 C 300.05 166.32 298.53 167.08 297.16 168.08 C 296.19 168.79 295.38 169.7 294.78 170.75 C 294.32 171.61 294.08 172.57 294.07 173.55 C 294.09 174.68 294.34 175.79 294.81 176.82 C 295.88 179.14 296.46 181.66 296.5 184.21 C 296.52 186.72 295.89 189.19 294.68 191.39 C 293.46 193.54 291.76 195.38 289.72 196.76 C 287.61 198.18 285.27 199.22 282.81 199.85 C 280.09 200.54 277.3 200.88 274.5 200.85 C 274.48 200.85 274.47 200.85 274.45 200.85 L 273.08 200.82 L 271.89 200.8 C 269.57 200.79 267.26 201.14 265.05 201.85 C 263.22 202.43 261.5 203.35 260 204.55 C 258.74 205.55 257.71 206.81 256.98 208.25 C 256.29 209.64 255.93 211.18 255.94 212.74 C 255.94 213.3 255.98 213.85 256.06 214.41 C 256.23 215.57 256.32 216.74 256.32 217.92 C 256.35 220.23 255.95 222.53 255.16 224.71 C 254.39 226.81 253.17 228.73 251.59 230.32 C 250.01 231.9 248.11 233.11 246.02 233.89 C 243.88 234.67 241.62 235.06 239.34 235.04 C 236.78 235.01 234.25 234.6 231.81 233.83 C 231.8 233.83 231.8 233.82 231.79 233.82 L 231.83 233.84 L 231.83 233.84 Z M 234.78 224.28 C 234.8 224.28 234.81 224.29 234.83 224.29 L 234.78 224.28 L 234.78 224.28 Z M 231.83 233.84 C 231.82 233.83 231.8 233.83 231.79 233.82 L 231.83 233.84 L 231.83 233.84 Z M 246.17 215.87 C 246.17 215.87 246.17 215.87 246.16 215.86 L 246.17 215.87 L 246.17 215.87 Z M 246.17 215.87 C 246.17 215.87 246.17 215.87 246.16 215.86 L 246.17 215.87 L 246.17 215.87 Z M 256.06 214.41" fill-rule="evenodd"/>
        <path d="M 228.74 404 C 231.02 402.64 233.74 402.23 236.32 402.88 C 238.89 403.52 241.1 405.17 242.46 407.44 C 243.82 409.72 244.23 412.44 243.58 415.01 C 242.94 417.58 241.3 419.8 239.02 421.16 C 231.07 425.92 222.92 430.36 214.61 434.47 C 210.84 436.33 207.01 438.09 203.15 439.76 C 199.53 441.32 195.87 442.77 192.16 444.12 C 188.69 445.39 185.18 446.53 181.63 447.56 C 178.3 448.53 174.93 449.36 171.54 450.06 C 168.33 450.72 165.1 451.23 161.85 451.59 C 158.77 451.93 155.67 452.1 152.57 452.11 C 149.02 452.12 145.48 451.86 141.97 451.34 C 137.79 450.71 133.64 449.86 129.55 448.79 C 125.57 447.75 121.67 446.44 117.86 444.88 C 114.13 443.35 110.52 441.51 107.09 439.39 C 103.67 437.28 100.46 434.83 97.52 432.1 C 94.53 429.32 91.86 426.22 89.54 422.86 C 87.15 419.39 85.16 415.66 83.59 411.74 C 81.94 407.6 80.72 403.3 79.96 398.91 C 79.13 394.16 78.72 389.35 78.74 384.53 C 78.76 380.34 79.01 376.16 79.52 372.01 C 80.05 367.51 81.15 363.09 82.79 358.86 C 84.39 354.77 86.47 350.88 88.96 347.27 C 91.45 343.69 94.25 340.34 97.35 337.28 C 100.49 334.18 103.84 331.28 107.38 328.63 C 111.01 325.89 114.77 323.33 118.65 320.94 C 122.65 318.48 126.72 316.13 130.87 313.9 C 135.12 311.61 139.42 309.39 143.75 307.25 C 148.16 305.05 152.59 302.89 157.02 300.74 C 161.15 298.74 165.28 296.72 169.4 294.68 C 173.5 292.66 177.57 290.58 181.62 288.44 C 185.61 286.34 189.55 284.15 193.45 281.88 C 197.24 279.67 200.97 277.34 204.62 274.89 C 217.83 266.01 230.82 256.82 243.6 247.34 C 257.87 236.78 271.85 225.85 285.52 214.54 C 292.38 208.86 299.14 203.06 305.8 197.14 C 312.22 191.44 318.51 185.59 324.67 179.6 C 330.42 174.02 336.01 168.27 341.41 162.35 C 346.26 157.05 350.89 151.55 355.27 145.86 C 357.6 142.81 360.1 139.89 362.74 137.1 C 365.49 134.2 368.37 131.42 371.37 128.79 C 377.56 123.33 384.23 118.44 391.3 114.18 C 394.83 112.05 398.47 110.09 402.2 108.32 C 405.88 106.57 409.65 105.04 413.5 103.74 C 417.28 102.46 421.14 101.45 425.06 100.71 C 428.91 99.99 432.82 99.62 436.74 99.6 C 439.99 99.59 443.23 99.88 446.42 100.47 C 449.65 101.07 452.81 102.02 455.83 103.3 C 458.94 104.63 461.87 106.32 464.57 108.34 C 467.38 110.44 469.92 112.87 472.15 115.57 C 475.38 119.47 478.22 123.67 480.62 128.13 C 482.93 132.41 484.83 136.89 486.3 141.53 C 487.74 146.04 488.79 150.66 489.46 155.34 C 490.12 159.95 490.44 164.59 490.43 169.23 C 490.42 175.69 489.85 182.13 488.74 188.49 C 487.68 194.65 486.17 200.73 484.25 206.69 C 482.43 212.33 480.26 217.86 477.74 223.23 C 475.43 228.18 472.8 232.98 469.87 237.58 C 468.58 239.6 467.22 241.57 465.8 243.5 C 464.24 245.63 462.62 247.72 460.96 249.78 C 457.2 254.44 453.3 258.99 449.26 263.42 C 444.76 268.38 440.15 273.26 435.45 278.04 C 430.47 283.12 425.41 288.12 420.28 293.04 C 410.11 302.8 399.66 312.27 388.95 321.43 C 384.16 325.53 379.3 329.53 374.37 333.44 C 370.16 336.79 365.86 340.02 361.46 343.12 C 359.3 344.65 356.61 345.25 354 344.8 C 351.38 344.35 349.05 342.88 347.53 340.71 C 346 338.55 345.39 335.86 345.84 333.25 C 346.29 330.63 347.77 328.31 349.93 326.78 C 354.02 323.9 358.02 320.9 361.93 317.78 C 366.67 314.02 371.35 310.17 375.95 306.23 C 386.38 297.32 396.54 288.11 406.43 278.61 C 411.42 273.83 416.34 268.97 421.18 264.03 C 425.7 259.43 430.13 254.74 434.47 249.96 C 438.23 245.83 441.88 241.58 445.4 237.23 C 446.87 235.4 448.3 233.54 449.69 231.64 C 450.85 230.07 451.96 228.46 453.02 226.81 C 455.48 222.94 457.68 218.92 459.62 214.76 C 461.78 210.15 463.65 205.4 465.21 200.55 C 466.85 195.48 468.13 190.31 469.04 185.07 C 469.95 179.82 470.42 174.51 470.43 169.19 C 470.44 165.5 470.18 161.82 469.66 158.17 C 469.15 154.58 468.34 151.04 467.24 147.59 C 466.15 144.14 464.73 140.8 463.02 137.61 C 461.24 134.32 459.13 131.2 456.74 128.32 C 455.52 126.84 454.12 125.5 452.58 124.34 C 451.17 123.29 449.63 122.4 448 121.71 C 446.33 121 444.58 120.47 442.79 120.14 C 440.82 119.78 438.82 119.6 436.82 119.6 C 434.1 119.62 431.4 119.87 428.73 120.37 C 425.75 120.93 422.81 121.7 419.93 122.68 C 416.81 123.73 413.76 124.97 410.78 126.39 C 407.65 127.87 404.6 129.51 401.63 131.31 C 395.59 134.95 389.88 139.14 384.58 143.8 C 382.03 146.04 379.59 148.39 377.26 150.86 C 375.09 153.14 373.04 155.54 371.13 158.04 C 366.4 164.19 361.41 170.13 356.17 175.85 C 350.5 182.06 344.64 188.1 338.61 193.95 C 332.23 200.14 325.73 206.19 319.08 212.09 C 312.25 218.17 305.31 224.12 298.27 229.95 C 284.32 241.48 270.06 252.64 255.51 263.41 C 242.48 273.08 229.23 282.44 215.77 291.5 C 211.77 294.18 207.68 296.74 203.52 299.16 C 199.38 301.58 195.18 303.9 190.94 306.14 C 186.74 308.35 182.52 310.51 178.26 312.61 C 174.1 314.67 169.92 316.72 165.73 318.74 C 161.36 320.86 156.99 323 152.64 325.16 C 148.5 327.21 144.4 329.33 140.33 331.52 C 136.54 333.56 132.81 335.71 129.14 337.97 C 125.79 340.03 122.54 342.25 119.4 344.62 C 116.58 346.73 113.91 349.03 111.41 351.51 C 109.19 353.7 107.18 356.09 105.41 358.65 C 103.8 360.98 102.46 363.49 101.42 366.13 C 100.4 368.78 99.71 371.56 99.38 374.39 C 98.96 377.78 98.75 381.19 98.74 384.6 C 98.73 388.25 99.03 391.88 99.66 395.47 C 100.19 398.5 101.03 401.47 102.17 404.33 C 103.18 406.86 104.47 409.27 106.01 411.52 C 107.5 413.68 109.22 415.67 111.14 417.45 C 113.13 419.3 115.29 420.95 117.6 422.38 C 120.11 423.92 122.73 425.26 125.45 426.38 C 128.44 427.6 131.5 428.63 134.62 429.44 C 138.01 430.33 141.45 431.04 144.93 431.56 C 147.44 431.93 149.98 432.12 152.52 432.11 C 154.9 432.11 157.28 431.97 159.65 431.71 C 162.29 431.42 164.91 431 167.51 430.47 C 170.39 429.88 173.24 429.17 176.07 428.35 C 179.18 427.45 182.27 426.44 185.31 425.33 C 188.66 424.11 191.96 422.8 195.22 421.39 C 198.78 419.86 202.3 418.24 205.77 416.53 C 213.59 412.66 221.26 408.48 228.74 404 Z"/>
        <path d="M 322.73 346.85 C 324.92 345.36 327.62 344.8 330.22 345.29 C 332.83 345.78 335.13 347.29 336.63 349.48 C 338.12 351.67 338.68 354.37 338.19 356.97 C 337.7 359.58 336.19 361.88 334 363.38 C 329.16 366.67 324.31 369.96 319.46 373.23 C 315.61 375.81 311.76 378.38 307.9 380.94 C 302.64 384.42 297.36 387.86 292.05 391.26 C 288.62 393.45 285.17 395.61 281.69 397.73 C 278.6 399.61 275.48 401.44 272.33 403.21 C 270.58 404.19 268.81 405.11 267 405.97 C 264.61 407.12 261.86 407.26 259.36 406.37 C 256.86 405.49 254.81 403.64 253.67 401.25 C 252.53 398.86 252.39 396.11 253.27 393.61 C 254.16 391.11 256 389.06 258.39 387.92 C 259.79 387.25 261.17 386.54 262.52 385.78 C 265.47 384.12 268.4 382.41 271.29 380.64 C 274.64 378.61 277.96 376.53 281.26 374.42 C 286.49 371.07 291.69 367.68 296.86 364.26 C 300.68 361.73 304.49 359.19 308.29 356.63 C 313.11 353.39 317.93 350.13 322.73 346.85 Z"/>
        <path d="M 427.89 128.51 C 429.85 128.14 431.87 128.56 433.51 129.69 C 435.15 130.81 436.28 132.54 436.65 134.49 C 437.02 136.44 436.6 138.47 435.48 140.11 C 434.36 141.75 432.63 142.88 430.67 143.25 C 428.15 143.72 425.68 144.41 423.27 145.29 C 420.86 146.17 418.52 147.22 416.26 148.44 C 413.97 149.67 411.76 151.05 409.64 152.55 C 407.49 154.06 405.42 155.68 403.43 157.4 C 399.48 160.84 395.78 164.55 392.36 168.51 C 389.16 172.19 386.12 175.99 383.22 179.92 C 381.65 182.03 380.02 184.11 378.34 186.15 C 376.44 188.46 374.48 190.74 372.48 192.98 C 371.05 194.59 369.59 196.17 368.11 197.74 C 366.49 199.46 364.85 201.15 363.19 202.82 C 362 204.02 360.81 205.21 359.6 206.39 C 358.31 207.65 357.02 208.89 355.72 210.13 C 351.58 214.05 347.37 217.88 343.07 221.62 C 337.93 226.1 332.71 230.48 327.42 234.77 C 325.88 236.03 323.9 236.61 321.92 236.41 C 319.94 236.2 318.12 235.22 316.87 233.67 C 315.62 232.13 315.03 230.15 315.24 228.17 C 315.44 226.19 316.43 224.37 317.97 223.12 C 323.13 218.94 328.21 214.67 333.22 210.31 C 337.36 206.71 341.42 203.02 345.4 199.24 C 346.65 198.06 347.88 196.87 349.11 195.67 C 350.26 194.54 351.41 193.41 352.54 192.27 C 354.11 190.68 355.67 189.07 357.2 187.44 C 358.59 185.97 359.96 184.49 361.3 182.98 C 363.17 180.9 364.98 178.78 366.76 176.62 C 368.27 174.78 369.75 172.9 371.17 170.98 C 374.29 166.76 377.58 162.65 381.02 158.69 C 384.91 154.19 389.11 149.97 393.6 146.07 C 395.97 144.02 398.43 142.1 400.99 140.29 C 403.6 138.44 406.33 136.76 409.14 135.24 C 412.03 133.68 415.03 132.33 418.11 131.2 C 421.3 130.04 424.57 129.14 427.89 128.51 Z"/>
    </symbol>
	
	<symbol id="picto-pin" viewBox="-5.0 -10.0 110.0 135.0">
		<path d="m50 10c-10.785 0-19.562 8.7695-19.562 19.543 0 4.2891 1.3672 8.3633 3.9492 11.777 2.3555 3.1094 5.6406 5.4766 9.3125 6.7266l4.6211 28.168c0.12891 0.83203 0.83594 1.4375 1.6797 1.4375s1.5508-0.60547 1.6758-1.4258l4.6211-28.176c3.6719-1.25 6.9609-3.6211 9.3164-6.7266 2.5859-3.4141 3.9531-7.4844 3.9531-11.777 0-10.777-8.7773-19.543-19.566-19.543zm-2.4102 11.582c-2.2188 0.66797-4.0742 2.2461-5.0898 4.3398-0.41797 0.86328-1.2812 1.3633-2.1797 1.3633-0.35547 0-0.71484-0.078125-1.0547-0.24219-1.2031-0.58203-1.7031-2.0312-1.1211-3.2344 1.6016-3.3047 4.5352-5.8047 8.0508-6.8594 1.2812-0.38672 2.6289 0.34375 3.0117 1.6211 0.38281 1.2812-0.34375 2.6289-1.6211 3.0117zm39 54.922c0 8.8594-18.406 13.496-36.59 13.496s-36.59-4.6367-36.59-13.496c0-7.6367 13.504-11.934 27.902-13.137l1.0742 6.5586c-5.2422 0.9375-9.6562 2.9805-9.6562 6.5859 0 1.7109 1.0469 4.0898 6.0234 5.6953 3.0391 0.98047 7.0312 1.5234 11.246 1.5234s8.207-0.53906 11.246-1.5234c4.9805-1.6094 6.0234-3.9844 6.0234-5.6953 0-3.6016-4.4141-5.6445-9.6562-6.5859l1.0742-6.5586c14.398 1.207 27.902 5.5039 27.902 13.137z"/>
	</symbol>
	
	<symbol id="picto-price" viewBox="-5.0 -10.0 110.0 135.0">
		<path d="m50 2.9414c-25.973 0-47.059 21.09-47.059 47.059 0 25.973 21.086 47.059 47.059 47.059s47.059-21.086 47.059-47.059-21.086-47.059-47.059-47.059zm0 2.9453c24.383 0 44.117 19.734 44.117 44.117 0 24.383-19.734 44.117-44.117 44.117s-44.117-19.734-44.117-44.117c0-24.383 19.734-44.117 44.117-44.117zm0 8.3906c-19.711 0-35.715 16.016-35.715 35.727 0 19.711 16.004 35.711 35.715 35.711s35.723-16.004 35.723-35.711c0-19.711-16.016-35.727-35.723-35.727zm0 2.9414c18.121 0 32.781 14.664 32.781 32.785s-14.664 32.77-32.781 32.77c-18.121 0-32.77-14.652-32.77-32.77 0-18.121 14.652-32.785 32.77-32.785zm3.6484 11.062c-4.7695 0-9.0391 2.5586-12.039 6.5117-1.8672 2.4609-3.2695 5.4727-4.0625 8.8164h-5.5234v-0.003906c-0.80859 0.003906-1.4648 0.66016-1.4648 1.4688-0.003906 0.8125 0.65234 1.4727 1.4648 1.4766h5c-0.13672 1.125-0.21094 2.2773-0.21094 3.4531 0 1.1758 0.074219 2.3242 0.21094 3.4492h-5v-0.003906c-0.80859 0.003906-1.4648 0.66016-1.4648 1.4688 0 0.39062 0.15234 0.76562 0.42578 1.043 0.27344 0.27734 0.64844 0.43359 1.0391 0.43359h5.5234c0.79297 3.3438 2.1914 6.3516 4.0625 8.8164 3 3.9531 7.2695 6.5117 12.039 6.5117 3.5195 0 6.9297-1.4258 9.7383-3.9844h-0.003907c0.60156-0.54688 0.64453-1.4766 0.097657-2.0742-0.54297-0.59766-1.4727-0.64453-2.0703-0.097656-2.3359 2.1289-5.0273 3.2148-7.7617 3.2148-3.7227 0-7.1289-1.9727-9.6953-5.3516-1.4727-1.9414-2.6406-4.3398-3.3672-7.0352h14.551c0.39062 0 0.76562-0.15234 1.043-0.42969 0.27734-0.27734 0.43359-0.65625 0.43359-1.0469-0.003906-0.39062-0.15625-0.76562-0.43359-1.0391-0.27734-0.27734-0.65234-0.42969-1.043-0.42969h-15.148c-0.15625-1.1172-0.23438-2.2695-0.23438-3.4492s0.082032-2.3359 0.23438-3.4531h15.148v0.003906c0.39062 0 0.76562-0.15625 1.043-0.43359 0.27734-0.27734 0.43359-0.65234 0.43359-1.043-0.003906-0.39062-0.15625-0.76562-0.43359-1.043-0.27734-0.27344-0.65234-0.42969-1.043-0.42578h-14.547c0.72656-2.6914 1.8906-5.0938 3.3672-7.0352 2.5664-3.3789 5.9727-5.3516 9.6953-5.3516 2.7344 0 5.4258 1.0859 7.7617 3.2148h-0.003906c0.28516 0.26562 0.66797 0.40234 1.0625 0.38672 0.39062-0.019531 0.75781-0.19141 1.0195-0.48437 0.54687-0.60156 0.5-1.5273-0.097657-2.0742-2.8047-2.5586-6.2266-3.9844-9.75-3.9844z"/>
	</symbol>
	
	<symbol id="picto-schedule" viewBox="0 0 128 160">
		<path stroke="2" d="m 21.279297,2.25 c -3.93,0 -7.128906,3.2008594 -7.128906,7.1308594 v 3.6289066 h -2.041016 c -5.44,0 -9.859375,4.419375 -9.859375,9.859375 v 11.310547 63.669921 c 0,5.440001 4.419375,9.861331 9.859375,9.861331 h 54.230469 c 4.96,10.64 15.76,18.03906 28.25,18.03906 17.179996,0 31.160156,-13.98016 31.160156,-31.160156 0,-9.73 -4.49,-18.430391 -11.5,-24.150391 V 34.169922 22.859375 C 114.25,17.419375 109.83062,13 104.39062,13 h -2.04101 V 9.3808594 c 0,-3.93 -3.198907,-7.1308594 -7.128907,-7.1308594 -3.93,0 -7.130859,3.2008594 -7.130859,7.1308594 V 13.009766 H 77.699219 V 9.3808594 c 0,-3.93 -3.198906,-7.1308594 -7.128907,-7.1308594 -3.93,0 -7.130859,3.2008594 -7.130859,7.1308594 V 13.009766 H 53.060547 V 9.3808594 c 0,-3.93 -3.200859,-7.1308594 -7.130859,-7.1308594 -3.93,0 -7.128907,3.2008594 -7.128907,7.1308594 V 13.009766 H 28.410156 V 9.3808594 c 0,-3.93 -3.200859,-7.1308594 -7.130859,-7.1308594 z m 0,3.5 c 2,0 3.630859,1.6308594 3.630859,3.6308594 V 20.140625 c 0,2 -1.630859,3.628906 -3.630859,3.628906 -2,0 -3.628906,-1.628906 -3.628906,-3.628906 V 9.3808594 c 0,-2 1.628906,-3.6308594 3.628906,-3.6308594 z m 24.640625,0 c 2,0 3.630859,1.6308594 3.630859,3.6308594 V 20.140625 c 0,2 -1.630859,3.628906 -3.630859,3.628906 -2,0 -3.63086,-1.628906 -3.63086,-3.628906 V 9.3808594 c 0,-2 1.63086,-3.6308594 3.63086,-3.6308594 z m 24.65039,0 c 2,0 3.628907,1.6308594 3.628907,3.6308594 V 20.140625 c 0,2 -1.628907,3.628906 -3.628907,3.628906 -2,0 -3.630859,-1.628906 -3.630859,-3.628906 V 9.3808594 c 0,-2 1.630859,-3.6308594 3.630859,-3.6308594 z m 24.640626,0 c 2,0 3.628906,1.6308594 3.628906,3.6308594 V 20.140625 c 0,2 -1.628906,3.628906 -3.628906,3.628906 -2,0 -3.63086,-1.628906 -3.63086,-3.628906 V 9.3808594 c 0,-2 1.63086,-3.6308594 3.63086,-3.6308594 z M 12.109375,16.5 h 2.041016 v 3.630859 c 0,3.93 3.198906,7.128907 7.128906,7.128907 3.93,0 7.130859,-3.198907 7.130859,-7.128907 V 16.5 h 10.378906 v 3.630859 c 0,3.93 3.20086,7.128907 7.13086,7.128907 3.93,0 7.130859,-3.198907 7.130859,-7.128907 V 16.5 h 10.378907 v 3.630859 c 0,3.93 3.200859,7.128907 7.130859,7.128907 3.93,0 7.128906,-3.198907 7.128906,-7.128907 V 16.5 h 10.380859 v 3.630859 c 0,3.93 3.198907,7.128907 7.128907,7.128907 3.93,0 7.130861,-3.198907 7.130861,-7.128907 V 16.5 h 2.03906 c 3.51,0 6.36133,2.849375 6.36133,6.359375 v 9.560547 H 5.7304688 V 22.859375 H 5.75 C 5.75,19.349375 8.599375,16.5 12.109375,16.5 Z M 5.75,35.919922 h 105 v 32.041016 c -4.71,-2.870001 -10.24016,-4.521485 -16.160156,-4.521485 -6.22,0 -12.020625,1.84 -16.890625,5 v -1.449219 c 0,-2.67 -2.16961,-4.849609 -4.84961,-4.849609 h -4.570312 c -2.67,0 -4.849609,2.169609 -4.849609,4.849609 v 4.570313 c 0,2.67 2.169609,4.849609 4.849609,4.849609 h 1.041015 c -3.7,5.12 -5.890624,11.409453 -5.890624,18.189453 0,3.35 0.539531,6.581331 1.519531,9.611331 H 12.109375 c -3.51,0 -6.359375,-2.85133 -6.359375,-6.361331 z m 62.529297,6.36914 c -2.67,0 -4.849609,2.171563 -4.849609,4.851563 v 4.570313 c 0.01,2.679999 2.179609,4.849609 4.849609,4.849609 h 4.570312 c 2.67,0 4.84961,-2.169609 4.84961,-4.849609 v -4.570313 c 0,-2.67 -2.16961,-4.851562 -4.84961,-4.851563 z m 23.650391,0 c -2.670001,0 -4.84961,2.171563 -4.84961,4.851563 v 4.570313 c 0,2.679999 2.179609,4.849609 4.84961,4.849609 H 96.5 c 2.67,0 4.84961,-2.169609 4.84961,-4.849609 v -4.570313 c 0,-2.67 -2.16961,-4.851562 -4.84961,-4.851563 z M 20,42.300781 c -2.67,0 -4.849609,2.16961 -4.849609,4.84961 v 4.570312 c 0,2.67 2.169609,4.849609 4.849609,4.849609 h 4.570312 c 2.670001,0 4.84961,-2.169609 4.84961,-4.849609 v -4.570312 c -0.01,-2.68 -2.17961,-4.84961 -4.84961,-4.84961 z m 24.640625,0 c -2.67,0 -4.851562,2.16961 -4.851563,4.84961 v 4.570312 c 0,2.67 2.171563,4.849609 4.851563,4.849609 h 4.570313 c 2.67,0 4.849609,-2.169609 4.849609,-4.849609 v -4.570312 c 0,-2.68 -2.179609,-4.84961 -4.849609,-4.84961 z m 23.648437,3.488281 h 4.570313 c 0.74,0 1.351563,0.601563 1.351563,1.351563 v 4.570313 c 0,0.74 -0.601563,1.349609 -1.351563,1.349609 h -4.570313 c -0.739999,0 -1.349609,-0.599609 -1.349609,-1.349609 v -4.570313 c 0,-0.74 0.599609,-1.351562 1.349609,-1.351563 z m 23.640626,0 H 96.5 c 0.74,0 1.349609,0.601563 1.349609,1.351563 v 4.570313 c 0,0.74 -0.599609,1.349609 -1.349609,1.349609 h -4.570312 c -0.74,0 -1.34961,-0.599609 -1.34961,-1.349609 v -4.570313 c 0,-0.74 0.599609,-1.351562 1.34961,-1.351563 z m -71.939454,0.01172 h 4.570313 c 0.74,0 1.349609,0.59961 1.349609,1.34961 v 4.570312 c 0,0.74 -0.599609,1.34961 -1.349609,1.349609 h -4.570313 c -0.74,0 -1.349609,-0.599609 -1.349609,-1.349609 v -4.570312 c 0,-0.74 0.599609,-1.34961 1.349609,-1.34961 z m 24.650391,0 h 4.570313 c 0.74,0 1.349609,0.59961 1.349609,1.34961 v 4.570312 c 0,0.74 -0.599609,1.34961 -1.349609,1.349609 h -4.570313 c -0.74,0 -1.351562,-0.599609 -1.351563,-1.349609 v -4.570312 c 0,-0.74 0.601563,-1.34961 1.351563,-1.34961 z M 20,62.130859 c -2.67,0 -4.849609,2.16961 -4.849609,4.84961 v 4.570312 c 0,2.67 2.169609,4.84961 4.849609,4.84961 h 4.570312 c 2.670001,0 4.84961,-2.16961 4.84961,-4.84961 v -4.570312 c -0.01,-2.67 -2.17961,-4.84961 -4.84961,-4.84961 z m 24.640625,0 c -2.67,0 -4.851562,2.16961 -4.851563,4.84961 v 4.570312 c 0,2.67 2.171563,4.84961 4.851563,4.84961 h 4.570313 c 2.67,0 4.849609,-2.16961 4.849609,-4.84961 v -4.570312 c 0,-2.67 -2.179609,-4.84961 -4.849609,-4.84961 z m -24.650391,3.5 h 4.570313 c 0.74,0 1.349609,0.59961 1.349609,1.34961 v 4.570312 c 0,0.74 -0.599609,1.34961 -1.349609,1.34961 h -4.570313 c -0.74,0 -1.349609,-0.59961 -1.349609,-1.34961 v -4.570312 c 0,-0.74 0.599609,-1.34961 1.349609,-1.34961 z m 24.650391,0 h 4.570313 c 0.74,0 1.349609,0.59961 1.349609,1.34961 v 4.570312 c 0,0.74 -0.599609,1.34961 -1.349609,1.34961 h -4.570313 c -0.74,0 -1.351562,-0.59961 -1.351563,-1.34961 v -4.570312 c 0,-0.74 0.601563,-1.34961 1.351563,-1.34961 z m 23.638672,0 h 4.570312 c 0.74,0 1.34961,0.59961 1.34961,1.34961 v 4.089843 c -0.67,0.58 -1.319453,1.190079 -1.939453,1.830079 h -3.980469 c -0.74,0 -1.349609,-0.59961 -1.349609,-1.34961 v -4.570312 c 0,-0.74 0.599609,-1.34961 1.349609,-1.34961 z m 26.310547,1.298829 c 15.249996,0 27.660156,12.410156 27.660156,27.660156 0,15.249996 -12.41016,27.660156 -27.660156,27.660156 -15.25,0 -27.660157,-12.41016 -27.660156,-27.660156 0,-15.25 12.410156,-27.660157 27.660156,-27.660156 z m 0,4.041015 c -0.97,0 -1.75,0.78 -1.75,1.75 v 21.869141 c 0,0.97 0.78,1.75 1.75,1.75 h 19.179686 c 0.97,0 1.75,-0.78 1.75,-1.75 0,-0.97 -0.78023,-1.75 -1.74023,-1.75 H 96.339844 V 72.720703 c 0,-0.97 -0.78,-1.75 -1.75,-1.75 z M 20,81.970703 c -2.67,0 -4.849609,2.16961 -4.849609,4.849609 v 4.570313 c 0,2.67 2.169609,4.849609 4.849609,4.849609 h 4.570312 c 2.670001,0 4.84961,-2.169609 4.84961,-4.849609 v -4.570313 c -0.01,-2.67 -2.17961,-4.849609 -4.84961,-4.849609 z m 24.640625,0 c -2.67,0 -4.851562,2.16961 -4.851563,4.849609 v 4.570313 c 0,2.67 2.171563,4.849609 4.851563,4.849609 h 4.570313 c 2.67,0 4.849609,-2.169609 4.849609,-4.849609 v -4.570313 c 0,-2.67 -2.179609,-4.849609 -4.849609,-4.849609 z m -24.650391,3.5 h 4.570313 c 0.74,0 1.349609,0.599609 1.349609,1.349609 v 4.570313 c 0,0.74 -0.599609,1.349609 -1.349609,1.349609 h -4.570313 c -0.74,0 -1.349609,-0.599609 -1.349609,-1.349609 v -4.570313 c 0,-0.739999 0.599609,-1.349609 1.349609,-1.349609 z m 24.650391,0 h 4.570313 c 0.74,0 1.349609,0.599609 1.349609,1.349609 v 4.570313 c 0,0.74 -0.599609,1.349609 -1.349609,1.349609 h -4.570313 c -0.74,0 -1.351562,-0.599609 -1.351563,-1.349609 v -4.570313 c 0,-0.739999 0.601563,-1.349609 1.351563,-1.349609 z"/>
	</symbol>
	
	<symbol id="picto-info" viewBox="-5.0 -10.0 110.0 135.0">
	 <path d="m50 5.8711c-12.664 0.015625-24.711 5.4727-33.074 14.98-8.3672 9.5117-12.242 22.152-10.645 34.719 1.5977 12.562 8.5156 23.832 18.996 30.945 10.48 7.1094 23.508 9.3789 35.773 6.2227 3.5977-0.92578 7.0664-2.3086 10.312-4.1094 0.72266-0.40625 1.5234-0.64453 2.3477-0.70703 0.82031-0.050781 1.6406 0.082031 2.4023 0.39453l12.695 5.0078c0.44141 0.19531 0.95703 0.089843 1.2812-0.26562 0.17188-0.16016 0.28906-0.36719 0.33984-0.59375 0.046874-0.23438 0.023437-0.47266-0.070313-0.69141l-4.5742-11.578 0.003906-0.003906c-0.34375-0.84375-0.46875-1.7656-0.37109-2.6719 0.10938-0.91406 0.44141-1.7852 0.96875-2.5391 6.0938-8.8789 8.7305-19.68 7.4141-30.371-1.3164-10.691-6.4961-20.527-14.562-27.664-8.0703-7.1367-18.469-11.074-29.238-11.074zm0 14.18c3.418 0.003907 6.3633 2.4219 7.0273 5.7734 0.66406 3.3555-1.1328 6.7109-4.293 8.0195s-6.8047 0.19922-8.7031-2.6445-1.5234-6.6328 0.89844-9.0508c1.3438-1.3477 3.168-2.1016 5.0703-2.0977zm3.1289 4.043c-1.4922-1.4922-3.832-1.7188-5.5859-0.54688-1.7539 1.1758-2.4336 3.4219-1.625 5.3711 0.80859 1.9492 2.8789 3.0547 4.9492 2.6445 2.0703-0.41016 3.5586-2.2266 3.5586-4.3398 0.003907-1.1719-0.46094-2.3008-1.2969-3.1289zm1.2969 16.766h-13.363v6.2344h3.1406c0.75781 0 1.3711 0.61719 1.3711 1.375v17.008c0 0.75781-0.61328 1.375-1.3711 1.3789h-3.5781v6.2344h18.754v-6.2383h-3.5742c-0.76172 0-1.375-0.61328-1.3789-1.375zm-4.5117-2.7461h5.8906c0.75781 0.003907 1.3711 0.61719 1.3672 1.375v24.617h3.5781v0.003906c0.75781-0.003906 1.375 0.60938 1.375 1.3672v8.9805c0 0.36719-0.14453 0.71484-0.40234 0.97266-0.25781 0.25781-0.60938 0.40234-0.97266 0.40234h-21.5c-0.36328 0-0.71484-0.14453-0.96875-0.40234-0.25781-0.25781-0.40234-0.60938-0.40234-0.97266v-8.9805c0-0.36328 0.14453-0.71094 0.40234-0.96875 0.25781-0.25781 0.60547-0.40234 0.96875-0.39844h3.5781v-14.27h-3.1406c-0.36328 0-0.71484-0.14453-0.96875-0.40234-0.25781-0.25781-0.40234-0.60547-0.40234-0.96875v-8.9805c0-0.75781 0.61328-1.3711 1.3711-1.375zm-22.359-19.562c0.61719-0.43359 1.4688-0.28906 1.9062 0.32422 0.4375 0.61719 0.29687 1.4688-0.31641 1.9062-0.5625 0.39844-1.1094 0.82031-1.6523 1.2578-0.5625 0.45313-1.0898 0.89844-1.5781 1.3438h0.003907c-0.5625 0.50781-1.4258 0.46484-1.9336-0.09375-0.50781-0.55859-0.46484-1.4219 0.09375-1.9297 0.57422-0.51953 1.1406-1.0078 1.6992-1.4531 0.57422-0.46875 1.168-0.91406 1.7812-1.3555zm-8.5039 8.3242c0.45312-0.60156 1.3086-0.71875 1.9141-0.26562 0.60156 0.45312 0.72656 1.3086 0.27344 1.9141-4.6445 6.1953-7.1445 13.734-7.125 21.477 0 1.5781 0.097657 3.1562 0.30078 4.7227 0.20313 1.5547 0.51172 3.0938 0.91797 4.6094 0.19922 0.73047-0.23438 1.4844-0.96875 1.6797-0.73047 0.19531-1.4805-0.23828-1.6758-0.96875-0.44141-1.6328-0.76953-3.293-0.98828-4.9648-0.21875-1.6836-0.33203-3.3789-0.33203-5.0781-0.003907-8.3359 2.6914-16.449 7.6836-23.125zm-2.1953-10.02c11.117-11.137 27.078-15.949 42.496-12.816 15.418 3.1328 28.238 13.789 34.129 28.379 5.8945 14.586 4.0742 31.16-4.8438 44.121-0.55078 0.77344-0.66406 1.7812-0.29297 2.6562l4.5703 11.582c0.28516 0.71094 0.35156 1.4922 0.19922 2.2422-0.16016 0.75-0.53516 1.4375-1.0742 1.9805-1.1055 1.1133-2.7695 1.4609-4.2266 0.87891l-12.695-5.0078c-0.78906-0.33203-1.6836-0.27734-2.4258 0.14844-3.4531 1.918-7.1367 3.3867-10.961 4.3711-13.367 3.4531-27.582 0.83594-38.844-7.1484-11.262-7.9883-18.434-20.535-19.594-34.293-1.1641-13.758 3.7969-27.332 13.562-37.094z"/>
	</symbol>
	
	<symbol id="picto-resa" viewBox="-5.0 -10.0 110.0 135.0">
		<path d="m18.523 33.617 5.0781 5.0781c0.60938 0.60938 1.6016 0.60938 2.2109 0l10.156-10.156c0.60938-0.60937 0.60938-1.6016 0-2.2109s-1.6016-0.60938-2.2109 0l-9.0508 9.0508-3.9727-3.9727c-0.60938-0.60938-1.6016-0.60938-2.2109 0-0.60938 0.60938-0.60938 1.6016 0 2.2109z" fill-rule="evenodd"/>
		<path d="m31.68 12.371h-9.1523v-2.3359c0-1.832-1.4844-3.3164-3.3164-3.3164h-3.5078c-1.832 0-3.3164 1.4844-3.3164 3.3164v2.3359h-2.8203c-1.832 0-3.3164 1.4844-3.3164 3.3164v27.281c0 1.832 1.4844 3.3164 3.3164 3.3164h10.457v37.438c0 1.2383 0.49219 2.4336 1.375 3.3125 0.875 0.87891 2.0664 1.375 3.3125 1.375h39.699l0.69141 1.1953c0.97266 1.6875 2.5781 2.918 4.4609 3.4258 1.8828 0.50391 3.8867 0.24219 5.5742-0.73438l13.957-8.0547c1.6875-0.97656 2.918-2.582 3.4219-4.4648l0.98438-3.668c0.50391-1.8828 0.24219-3.8867-0.73438-5.5742-1.5547-2.6953-4.3203-7.4844-6.4375-11.148-2.0352-3.5273-6.3984-4.9609-10.133-3.3242l-5.2734 2.3086v-37.148c0-1.2461-0.49219-2.4375-1.3711-3.3164-0.88281-0.87891-2.0742-1.3711-3.3164-1.3711h-18.273v-0.84766c0-1.832-1.4844-3.3164-3.3164-3.3164h-2.8242v-2.3359c0-1.832-1.4844-3.3164-3.3164-3.3164h-3.5078c-1.832 0-3.3164 1.4844-3.3164 3.3164zm18.484 61.992s6.9219-0.41797 6.9375-0.41797c0.52344-0.046874 0.98828-0.35156 1.2383-0.8125 0.25781-0.48047 0.24609-1.0547-0.019532-1.5234 0 0-5.9375-10.285-9.3477-16.188-0.41406-0.71484-0.52734-1.5625-0.30859-2.3594 0.21094-0.79297 0.73047-1.4727 1.4453-1.8828l0.007813-0.003907c0.71094-0.41406 1.5586-0.52734 2.3555-0.3125 0.79688 0.21484 1.4727 0.73438 1.8867 1.4453l7.0078 12.145c0.39844 0.69141 1.25 0.96875 1.9844 0.64844 0 0 8.3633-3.6641 14.102-6.1758 2.2734-0.99609 4.9297-0.125 6.168 2.0234 2.1172 3.6641 4.8828 8.4531 6.4375 11.148 0.55859 0.96875 0.71484 2.1211 0.42188 3.2031l-0.98438 3.668c-0.28516 1.082-0.99609 2.0039-1.9648 2.5664l-13.957 8.0547c-0.96875 0.55859-2.1211 0.71484-3.2031 0.42188-1.082-0.28906-2.0039-0.99609-2.5664-1.9688l-3.6445-6.3164c-0.26172-0.45312-0.73047-0.74609-1.2539-0.78125 0 0-6.9805-0.44922-11.945-0.76953-0.87891-0.058593-1.6953-0.45703-2.2773-1.1211-0.58203-0.65625-0.875-1.5195-0.81641-2.3984v-0.003906c0.078124-1.2344 1.0625-2.2148 2.2969-2.2891zm-12.977-28.078h-14.039v28.688h21.898c0.72656-2.0781 2.6406-3.5898 4.9297-3.7305l4.3711-0.26172-3.5742-6.1914c-1.2812 0.019532-2.5859-0.13281-3.8828-0.48047-7.4961-2.0078-11.953-9.7266-9.9453-17.223 0.074219-0.26953 0.15625-0.53906 0.24219-0.80078zm30.609 13.457v-29.77h-19.836v6.9258c2-0.375 4.1133-0.31641 6.207 0.24219 7.4961 2.0078 11.953 9.7266 9.9453 17.227-0.46484 1.7422-1.2422 3.3203-2.25 4.6875l1.5117 2.625zm-7.6914-3.7266c0.41797-0.75781 0.75391-1.5859 0.98828-2.4609 1.5625-5.8281-1.9023-11.832-7.7305-13.395-1.8359-0.49219-3.6836-0.48438-5.4023-0.066406v2.875c0 1.832-1.4844 3.3164-3.3164 3.3164h-4.1094c-0.23047 0.51172-0.41797 1.0508-0.57031 1.6094-1.5625 5.832 1.9023 11.832 7.7344 13.395 0.39844 0.10938 0.79688 0.19141 1.1992 0.25l-2.6328-4.5547c-0.82422-1.4297-1.0508-3.1328-0.62109-4.7305 0.42578-1.5938 1.4727-2.957 2.9023-3.7812 0-0.003906 0.003906-0.003906 0.007813-0.003906 1.4297-0.82812 3.1289-1.0508 4.7266-0.625 1.5977 0.42969 2.957 1.4727 3.7852 2.9023zm-15.27-33.895h-35.461v20.848c0 0.10547 0.085938 0.19141 0.19141 0.19141h35.078c0.10156 0 0.19141-0.085937 0.19141-0.19141zm-6.1406-9.75h-3.8906v-2.3359c0-0.10547 0.085937-0.19141 0.19141-0.19141h3.5078c0.10547 0 0.19141 0.085938 0.19141 0.19141zm-19.293 0h-3.8906v-2.3359c0-0.10547 0.089843-0.19141 0.19141-0.19141h3.5078c0.10937 0 0.19141 0.085938 0.19141 0.19141z" fill-rule="evenodd"/>
	</symbol>
</svg>